ISO-10303-21;
HEADER;
FILE_DESCRIPTION(('FreeCAD Model'),'2;1');
FILE_NAME('Open CASCADE Shape Model','2026-08-13T00:32:15',('FreeCAD'),(
    'FreeCAD'),'Open CASCADE STEP processor 7.8','FreeCAD','Unknown');
FILE_SCHEMA(('AUTOMOTIVE_DESIGN { 1 0 10303 214 1 1 1 1 }'));
ENDSEC;
DATA;
#1 = APPLICATION_PROTOCOL_DEFINITION('international standard',
  'automotive_design',2000,#2);
#2 = APPLICATION_CONTEXT(
  'core data for automotive mechanical design processes');
#3 = SHAPE_DEFINITION_REPRESENTATION(#4,#10);
#4 = PRODUCT_DEFINITION_SHAPE('','',#5);
#5 = PRODUCT_DEFINITION('design','',#6,#9);
#6 = PRODUCT_DEFINITION_FORMATION('','',#7);
#7 = PRODUCT('Open CASCADE STEP translator 7.8 1',
  'Open CASCADE STEP translator 7.8 1','',(#8));
#8 = PRODUCT_CONTEXT('',#2,'mechanical');
#9 = PRODUCT_DEFINITION_CONTEXT('part definition',#2,'design');
#10 = ADVANCED_BREP_SHAPE_REPRESENTATION('',(#11,#15),#653);
#11 = AXIS2_PLACEMENT_3D('',#12,#13,#14);
#12 = CARTESIAN_POINT('',(0.,0.,0.));
#13 = DIRECTION('',(0.,0.,1.));
#14 = DIRECTION('',(1.,0.,-0.));
#15 = MANIFOLD_SOLID_BREP('',#16);
#16 = CLOSED_SHELL('',(#17,#57,#106,#155,#186,#217,#242,#288,#312,#358,
    #376,#401,#447,#471,#517,#535,#557,#571,#588,#605,#619,#636));
#17 = ADVANCED_FACE('',(#18),#52,.F.);
#18 = FACE_BOUND('',#19,.F.);
#19 = EDGE_LOOP('',(#20,#30,#38,#46));
#20 = ORIENTED_EDGE('',*,*,#21,.T.);
#21 = EDGE_CURVE('',#22,#24,#26,.T.);
#22 = VERTEX_POINT('',#23);
#23 = CARTESIAN_POINT('',(-71.,2.208813131957E-14,99.4761));
#24 = VERTEX_POINT('',#25);
#25 = CARTESIAN_POINT('',(-71.,-2.,99.4761));
#26 = LINE('',#27,#28);
#27 = CARTESIAN_POINT('',(-71.,2.119995290428E-14,99.4761));
#28 = VECTOR('',#29,1.);
#29 = DIRECTION('',(0.,-1.,2.22044604925E-16));
#30 = ORIENTED_EDGE('',*,*,#31,.T.);
#31 = EDGE_CURVE('',#24,#32,#34,.T.);
#32 = VERTEX_POINT('',#33);
#33 = CARTESIAN_POINT('',(-103.5,-2.,4.));
#34 = LINE('',#35,#36);
#35 = CARTESIAN_POINT('',(-71.,-2.,99.4761));
#36 = VECTOR('',#37,1.);
#37 = DIRECTION('',(-0.32224156531,-2.102001848731E-16,-0.946657474268)
  );
#38 = ORIENTED_EDGE('',*,*,#39,.F.);
#39 = EDGE_CURVE('',#40,#32,#42,.T.);
#40 = VERTEX_POINT('',#41);
#41 = CARTESIAN_POINT('',(-103.5,-2.246362263975E-16,4.));
#42 = LINE('',#43,#44);
#43 = CARTESIAN_POINT('',(-103.5,0.,4.));
#44 = VECTOR('',#45,1.);
#45 = DIRECTION('',(0.,-1.,2.22044604925E-16));
#46 = ORIENTED_EDGE('',*,*,#47,.F.);
#47 = EDGE_CURVE('',#22,#40,#48,.T.);
#48 = LINE('',#49,#50);
#49 = CARTESIAN_POINT('',(-71.,2.119995290428E-14,99.4761));
#50 = VECTOR('',#51,1.);
#51 = DIRECTION('',(-0.32224156531,-2.102001848731E-16,-0.946657474268)
  );
#52 = PLANE('',#53);
#53 = AXIS2_PLACEMENT_3D('',#54,#55,#56);
#54 = CARTESIAN_POINT('',(-71.,2.119995290428E-14,99.4761));
#55 = DIRECTION('',(0.946657474268,-7.155200105968E-17,-0.32224156531));
#56 = DIRECTION('',(-0.32224156531,-2.102001848731E-16,-0.946657474268)
  );
#57 = ADVANCED_FACE('',(#58),#101,.F.);
#58 = FACE_BOUND('',#59,.F.);
#59 = EDGE_LOOP('',(#60,#69,#77,#85,#93,#100));
#60 = ORIENTED_EDGE('',*,*,#61,.T.);
#61 = EDGE_CURVE('',#22,#62,#64,.T.);
#62 = VERTEX_POINT('',#63);
#63 = CARTESIAN_POINT('',(-71.,-4.,103.4761));
#64 = CIRCLE('',#65,4.);
#65 = AXIS2_PLACEMENT_3D('',#66,#67,#68);
#66 = CARTESIAN_POINT('',(-71.,-4.,99.4761));
#67 = DIRECTION('',(1.,0.,-0.));
#68 = DIRECTION('',(0.,1.,3.330669073875E-15));
#69 = ORIENTED_EDGE('',*,*,#70,.T.);
#70 = EDGE_CURVE('',#62,#71,#73,.T.);
#71 = VERTEX_POINT('',#72);
#72 = CARTESIAN_POINT('',(-71.,-34.7381,103.4761));
#73 = LINE('',#74,#75);
#74 = CARTESIAN_POINT('',(-71.,-4.,103.4761));
#75 = VECTOR('',#76,1.);
#76 = DIRECTION('',(0.,-1.,2.22044604925E-16));
#77 = ORIENTED_EDGE('',*,*,#78,.T.);
#78 = EDGE_CURVE('',#71,#79,#81,.T.);
#79 = VERTEX_POINT('',#80);
#80 = CARTESIAN_POINT('',(-71.,-34.7381,101.4761));
#81 = LINE('',#82,#83);
#82 = CARTESIAN_POINT('',(-71.,-34.7381,103.4761));
#83 = VECTOR('',#84,1.);
#84 = DIRECTION('',(0.,-3.774758283726E-15,-1.));
#85 = ORIENTED_EDGE('',*,*,#86,.T.);
#86 = EDGE_CURVE('',#79,#87,#89,.T.);
#87 = VERTEX_POINT('',#88);
#88 = CARTESIAN_POINT('',(-71.,-4.,101.4761));
#89 = LINE('',#90,#91);
#90 = CARTESIAN_POINT('',(-71.,-34.7381,101.4761));
#91 = VECTOR('',#92,1.);
#92 = DIRECTION('',(0.,1.,-2.22044604925E-16));
#93 = ORIENTED_EDGE('',*,*,#94,.T.);
#94 = EDGE_CURVE('',#87,#24,#95,.T.);
#95 = CIRCLE('',#96,2.);
#96 = AXIS2_PLACEMENT_3D('',#97,#98,#99);
#97 = CARTESIAN_POINT('',(-71.,-4.,99.4761));
#98 = DIRECTION('',(-1.,0.,0.));
#99 = DIRECTION('',(0.,2.886579864025E-15,1.));
#100 = ORIENTED_EDGE('',*,*,#21,.F.);
#101 = PLANE('',#102);
#102 = AXIS2_PLACEMENT_3D('',#103,#104,#105);
#103 = CARTESIAN_POINT('',(-71.,-17.11592639009,102.28044256952));
#104 = DIRECTION('',(1.,0.,0.));
#105 = DIRECTION('',(0.,-1.,2.22044604925E-16));
#106 = ADVANCED_FACE('',(#107),#150,.T.);
#107 = FACE_BOUND('',#108,.T.);
#108 = EDGE_LOOP('',(#109,#118,#126,#134,#142,#149));
#109 = ORIENTED_EDGE('',*,*,#110,.T.);
#110 = EDGE_CURVE('',#40,#111,#113,.T.);
#111 = VERTEX_POINT('',#112);
#112 = CARTESIAN_POINT('',(-103.5,-4.,2.57571741713E-14));
#113 = CIRCLE('',#114,4.);
#114 = AXIS2_PLACEMENT_3D('',#115,#116,#117);
#115 = CARTESIAN_POINT('',(-103.5,-4.,4.));
#116 = DIRECTION('',(-1.,2.719262146894E-32,1.224646799147E-16));
#117 = DIRECTION('',(-3.752598180869E-32,1.,-5.284675003657E-16));
#118 = ORIENTED_EDGE('',*,*,#119,.T.);
#119 = EDGE_CURVE('',#111,#120,#122,.T.);
#120 = VERTEX_POINT('',#121);
#121 = CARTESIAN_POINT('',(-103.5,-26.7381,2.886579864025E-14));
#122 = LINE('',#123,#124);
#123 = CARTESIAN_POINT('',(-103.5,-4.,2.57571741713E-14));
#124 = VECTOR('',#125,1.);
#125 = DIRECTION('',(-9.567244921585E-33,-1.,1.439221215425E-16));
#126 = ORIENTED_EDGE('',*,*,#127,.T.);
#127 = EDGE_CURVE('',#120,#128,#130,.T.);
#128 = VERTEX_POINT('',#129);
#129 = CARTESIAN_POINT('',(-103.5,-26.7381,2.));
#130 = LINE('',#131,#132);
#131 = CARTESIAN_POINT('',(-103.5,-26.7381,2.886579864025E-14));
#132 = VECTOR('',#133,1.);
#133 = DIRECTION('',(1.224646799147E-16,2.22044604925E-16,1.));
#134 = ORIENTED_EDGE('',*,*,#135,.T.);
#135 = EDGE_CURVE('',#128,#136,#138,.T.);
#136 = VERTEX_POINT('',#137);
#137 = CARTESIAN_POINT('',(-103.5,-4.,2.));
#138 = LINE('',#139,#140);
#139 = CARTESIAN_POINT('',(-103.5,-26.7381,2.));
#140 = VECTOR('',#141,1.);
#141 = DIRECTION('',(7.175433691189E-33,1.,-1.634527423881E-16));
#142 = ORIENTED_EDGE('',*,*,#143,.T.);
#143 = EDGE_CURVE('',#136,#32,#144,.T.);
#144 = CIRCLE('',#145,2.);
#145 = AXIS2_PLACEMENT_3D('',#146,#147,#148);
#146 = CARTESIAN_POINT('',(-103.5,-4.,4.));
#147 = DIRECTION('',(1.,-2.719262146894E-32,-1.224646799147E-16));
#148 = DIRECTION('',(-1.224646799147E-16,2.22044604925E-16,-1.));
#149 = ORIENTED_EDGE('',*,*,#39,.F.);
#150 = PLANE('',#151);
#151 = AXIS2_PLACEMENT_3D('',#152,#153,#154);
#152 = CARTESIAN_POINT('',(-103.5,-13.13667631797,1.248903265547));
#153 = DIRECTION('',(-1.,2.719262146894E-32,1.224646799147E-16));
#154 = DIRECTION('',(0.,-1.,2.22044604925E-16));
#155 = ADVANCED_FACE('',(#156),#181,.F.);
#156 = FACE_BOUND('',#157,.F.);
#157 = EDGE_LOOP('',(#158,#166,#174,#180));
#158 = ORIENTED_EDGE('',*,*,#159,.T.);
#159 = EDGE_CURVE('',#40,#160,#162,.T.);
#160 = VERTEX_POINT('',#161);
#161 = CARTESIAN_POINT('',(103.5,-2.246362263975E-16,4.));
#162 = LINE('',#163,#164);
#163 = CARTESIAN_POINT('',(-103.5,0.,4.));
#164 = VECTOR('',#165,1.);
#165 = DIRECTION('',(1.,0.,0.));
#166 = ORIENTED_EDGE('',*,*,#167,.T.);
#167 = EDGE_CURVE('',#160,#168,#170,.T.);
#168 = VERTEX_POINT('',#169);
#169 = CARTESIAN_POINT('',(71.,2.208813131957E-14,99.4761));
#170 = LINE('',#171,#172);
#171 = CARTESIAN_POINT('',(103.5,0.,4.));
#172 = VECTOR('',#173,1.);
#173 = DIRECTION('',(-0.32224156531,2.102001848731E-16,0.946657474268));
#174 = ORIENTED_EDGE('',*,*,#175,.T.);
#175 = EDGE_CURVE('',#168,#22,#176,.T.);
#176 = LINE('',#177,#178);
#177 = CARTESIAN_POINT('',(71.,2.119995290428E-14,99.4761));
#178 = VECTOR('',#179,1.);
#179 = DIRECTION('',(-1.,0.,0.));
#180 = ORIENTED_EDGE('',*,*,#47,.T.);
#181 = PLANE('',#182);
#182 = AXIS2_PLACEMENT_3D('',#183,#184,#185);
#183 = CARTESIAN_POINT('',(2.470781946051E-15,9.348871640591E-15,
    46.103574836902));
#184 = DIRECTION('',(0.,-1.,2.22044604925E-16));
#185 = DIRECTION('',(1.,0.,0.));
#186 = ADVANCED_FACE('',(#187),#212,.T.);
#187 = FACE_BOUND('',#188,.T.);
#188 = EDGE_LOOP('',(#189,#197,#205,#211));
#189 = ORIENTED_EDGE('',*,*,#190,.T.);
#190 = EDGE_CURVE('',#32,#191,#193,.T.);
#191 = VERTEX_POINT('',#192);
#192 = CARTESIAN_POINT('',(103.5,-2.,4.));
#193 = LINE('',#194,#195);
#194 = CARTESIAN_POINT('',(-103.5,-2.,4.));
#195 = VECTOR('',#196,1.);
#196 = DIRECTION('',(1.,0.,0.));
#197 = ORIENTED_EDGE('',*,*,#198,.T.);
#198 = EDGE_CURVE('',#191,#199,#201,.T.);
#199 = VERTEX_POINT('',#200);
#200 = CARTESIAN_POINT('',(71.,-2.,99.4761));
#201 = LINE('',#202,#203);
#202 = CARTESIAN_POINT('',(103.5,-2.,4.));
#203 = VECTOR('',#204,1.);
#204 = DIRECTION('',(-0.32224156531,2.102001848731E-16,0.946657474268));
#205 = ORIENTED_EDGE('',*,*,#206,.T.);
#206 = EDGE_CURVE('',#199,#24,#207,.T.);
#207 = LINE('',#208,#209);
#208 = CARTESIAN_POINT('',(71.,-2.,99.4761));
#209 = VECTOR('',#210,1.);
#210 = DIRECTION('',(-1.,0.,0.));
#211 = ORIENTED_EDGE('',*,*,#31,.T.);
#212 = PLANE('',#213);
#213 = AXIS2_PLACEMENT_3D('',#214,#215,#216);
#214 = CARTESIAN_POINT('',(2.470781946051E-15,-2.,46.103574836902));
#215 = DIRECTION('',(0.,-1.,2.22044604925E-16));
#216 = DIRECTION('',(1.,0.,0.));
#217 = ADVANCED_FACE('',(#218),#237,.T.);
#218 = FACE_BOUND('',#219,.F.);
#219 = EDGE_LOOP('',(#220,#221,#230,#236));
#220 = ORIENTED_EDGE('',*,*,#175,.F.);
#221 = ORIENTED_EDGE('',*,*,#222,.T.);
#222 = EDGE_CURVE('',#168,#223,#225,.T.);
#223 = VERTEX_POINT('',#224);
#224 = CARTESIAN_POINT('',(71.,-4.,103.4761));
#225 = CIRCLE('',#226,4.);
#226 = AXIS2_PLACEMENT_3D('',#227,#228,#229);
#227 = CARTESIAN_POINT('',(71.,-4.,99.4761));
#228 = DIRECTION('',(1.,0.,-0.));
#229 = DIRECTION('',(0.,1.,3.330669073875E-15));
#230 = ORIENTED_EDGE('',*,*,#231,.F.);
#231 = EDGE_CURVE('',#62,#223,#232,.T.);
#232 = LINE('',#233,#234);
#233 = CARTESIAN_POINT('',(-71.,-4.,103.4761));
#234 = VECTOR('',#235,1.);
#235 = DIRECTION('',(1.,0.,0.));
#236 = ORIENTED_EDGE('',*,*,#61,.F.);
#237 = CYLINDRICAL_SURFACE('',#238,4.);
#238 = AXIS2_PLACEMENT_3D('',#239,#240,#241);
#239 = CARTESIAN_POINT('',(-71.,-4.,99.4761));
#240 = DIRECTION('',(-1.,0.,-0.));
#241 = DIRECTION('',(0.,1.,3.330669073875E-15));
#242 = ADVANCED_FACE('',(#243,#261,#272),#283,.F.);
#243 = FACE_BOUND('',#244,.F.);
#244 = EDGE_LOOP('',(#245,#246,#254,#260));
#245 = ORIENTED_EDGE('',*,*,#231,.T.);
#246 = ORIENTED_EDGE('',*,*,#247,.T.);
#247 = EDGE_CURVE('',#223,#248,#250,.T.);
#248 = VERTEX_POINT('',#249);
#249 = CARTESIAN_POINT('',(71.,-34.7381,103.4761));
#250 = LINE('',#251,#252);
#251 = CARTESIAN_POINT('',(71.,-4.,103.4761));
#252 = VECTOR('',#253,1.);
#253 = DIRECTION('',(0.,-1.,2.22044604925E-16));
#254 = ORIENTED_EDGE('',*,*,#255,.F.);
#255 = EDGE_CURVE('',#71,#248,#256,.T.);
#256 = LINE('',#257,#258);
#257 = CARTESIAN_POINT('',(-71.,-34.7381,103.4761));
#258 = VECTOR('',#259,1.);
#259 = DIRECTION('',(1.,0.,0.));
#260 = ORIENTED_EDGE('',*,*,#70,.F.);
#261 = FACE_BOUND('',#262,.F.);
#262 = EDGE_LOOP('',(#263));
#263 = ORIENTED_EDGE('',*,*,#264,.F.);
#264 = EDGE_CURVE('',#265,#265,#267,.T.);
#265 = VERTEX_POINT('',#266);
#266 = CARTESIAN_POINT('',(52.5,-14.2381,103.4761));
#267 = CIRCLE('',#268,4.5);
#268 = AXIS2_PLACEMENT_3D('',#269,#270,#271);
#269 = CARTESIAN_POINT('',(52.5,-18.7381,103.4761));
#270 = DIRECTION('',(0.,-2.832769448824E-16,-1.));
#271 = DIRECTION('',(0.,1.,-2.832769448824E-16));
#272 = FACE_BOUND('',#273,.F.);
#273 = EDGE_LOOP('',(#274));
#274 = ORIENTED_EDGE('',*,*,#275,.F.);
#275 = EDGE_CURVE('',#276,#276,#278,.T.);
#276 = VERTEX_POINT('',#277);
#277 = CARTESIAN_POINT('',(-52.5,-14.2381,103.4761));
#278 = CIRCLE('',#279,4.5);
#279 = AXIS2_PLACEMENT_3D('',#280,#281,#282);
#280 = CARTESIAN_POINT('',(-52.5,-18.7381,103.4761));
#281 = DIRECTION('',(0.,-2.832769448824E-16,-1.));
#282 = DIRECTION('',(0.,1.,-2.832769448824E-16));
#283 = PLANE('',#284);
#284 = AXIS2_PLACEMENT_3D('',#285,#286,#287);
#285 = CARTESIAN_POINT('',(-71.,-4.,103.4761));
#286 = DIRECTION('',(0.,-2.22044604925E-16,-1.));
#287 = DIRECTION('',(0.,-1.,2.22044604925E-16));
#288 = ADVANCED_FACE('',(#289),#307,.F.);
#289 = FACE_BOUND('',#290,.F.);
#290 = EDGE_LOOP('',(#291,#292,#300,#306));
#291 = ORIENTED_EDGE('',*,*,#255,.T.);
#292 = ORIENTED_EDGE('',*,*,#293,.T.);
#293 = EDGE_CURVE('',#248,#294,#296,.T.);
#294 = VERTEX_POINT('',#295);
#295 = CARTESIAN_POINT('',(71.,-34.7381,101.4761));
#296 = LINE('',#297,#298);
#297 = CARTESIAN_POINT('',(71.,-34.7381,103.4761));
#298 = VECTOR('',#299,1.);
#299 = DIRECTION('',(0.,-3.774758283726E-15,-1.));
#300 = ORIENTED_EDGE('',*,*,#301,.F.);
#301 = EDGE_CURVE('',#79,#294,#302,.T.);
#302 = LINE('',#303,#304);
#303 = CARTESIAN_POINT('',(-71.,-34.7381,101.4761));
#304 = VECTOR('',#305,1.);
#305 = DIRECTION('',(1.,0.,0.));
#306 = ORIENTED_EDGE('',*,*,#78,.F.);
#307 = PLANE('',#308);
#308 = AXIS2_PLACEMENT_3D('',#309,#310,#311);
#309 = CARTESIAN_POINT('',(-71.,-34.7381,103.4761));
#310 = DIRECTION('',(0.,1.,-3.774758283726E-15));
#311 = DIRECTION('',(0.,-3.774758283726E-15,-1.));
#312 = ADVANCED_FACE('',(#313,#331,#342),#353,.F.);
#313 = FACE_BOUND('',#314,.F.);
#314 = EDGE_LOOP('',(#315,#316,#324,#330));
#315 = ORIENTED_EDGE('',*,*,#301,.T.);
#316 = ORIENTED_EDGE('',*,*,#317,.T.);
#317 = EDGE_CURVE('',#294,#318,#320,.T.);
#318 = VERTEX_POINT('',#319);
#319 = CARTESIAN_POINT('',(71.,-4.,101.4761));
#320 = LINE('',#321,#322);
#321 = CARTESIAN_POINT('',(71.,-34.7381,101.4761));
#322 = VECTOR('',#323,1.);
#323 = DIRECTION('',(0.,1.,-2.22044604925E-16));
#324 = ORIENTED_EDGE('',*,*,#325,.F.);
#325 = EDGE_CURVE('',#87,#318,#326,.T.);
#326 = LINE('',#327,#328);
#327 = CARTESIAN_POINT('',(-71.,-4.,101.4761));
#328 = VECTOR('',#329,1.);
#329 = DIRECTION('',(1.,0.,0.));
#330 = ORIENTED_EDGE('',*,*,#86,.F.);
#331 = FACE_BOUND('',#332,.F.);
#332 = EDGE_LOOP('',(#333));
#333 = ORIENTED_EDGE('',*,*,#334,.T.);
#334 = EDGE_CURVE('',#335,#335,#337,.T.);
#335 = VERTEX_POINT('',#336);
#336 = CARTESIAN_POINT('',(52.5,-14.2381,101.4761));
#337 = CIRCLE('',#338,4.5);
#338 = AXIS2_PLACEMENT_3D('',#339,#340,#341);
#339 = CARTESIAN_POINT('',(52.5,-18.7381,101.4761));
#340 = DIRECTION('',(0.,-2.832769448824E-16,-1.));
#341 = DIRECTION('',(0.,1.,-2.832769448824E-16));
#342 = FACE_BOUND('',#343,.F.);
#343 = EDGE_LOOP('',(#344));
#344 = ORIENTED_EDGE('',*,*,#345,.T.);
#345 = EDGE_CURVE('',#346,#346,#348,.T.);
#346 = VERTEX_POINT('',#347);
#347 = CARTESIAN_POINT('',(-52.5,-14.2381,101.4761));
#348 = CIRCLE('',#349,4.5);
#349 = AXIS2_PLACEMENT_3D('',#350,#351,#352);
#350 = CARTESIAN_POINT('',(-52.5,-18.7381,101.4761));
#351 = DIRECTION('',(0.,-2.832769448824E-16,-1.));
#352 = DIRECTION('',(0.,1.,-2.832769448824E-16));
#353 = PLANE('',#354);
#354 = AXIS2_PLACEMENT_3D('',#355,#356,#357);
#355 = CARTESIAN_POINT('',(-71.,-34.7381,101.4761));
#356 = DIRECTION('',(0.,2.22044604925E-16,1.));
#357 = DIRECTION('',(0.,1.,-2.22044604925E-16));
#358 = ADVANCED_FACE('',(#359),#371,.F.);
#359 = FACE_BOUND('',#360,.F.);
#360 = EDGE_LOOP('',(#361,#362,#369,#370));
#361 = ORIENTED_EDGE('',*,*,#325,.T.);
#362 = ORIENTED_EDGE('',*,*,#363,.T.);
#363 = EDGE_CURVE('',#318,#199,#364,.T.);
#364 = CIRCLE('',#365,2.);
#365 = AXIS2_PLACEMENT_3D('',#366,#367,#368);
#366 = CARTESIAN_POINT('',(71.,-4.,99.4761));
#367 = DIRECTION('',(-1.,0.,0.));
#368 = DIRECTION('',(0.,2.886579864025E-15,1.));
#369 = ORIENTED_EDGE('',*,*,#206,.T.);
#370 = ORIENTED_EDGE('',*,*,#94,.F.);
#371 = CYLINDRICAL_SURFACE('',#372,2.);
#372 = AXIS2_PLACEMENT_3D('',#373,#374,#375);
#373 = CARTESIAN_POINT('',(-71.,-4.,99.4761));
#374 = DIRECTION('',(-1.,0.,0.));
#375 = DIRECTION('',(0.,2.886579864025E-15,1.));
#376 = ADVANCED_FACE('',(#377),#396,.T.);
#377 = FACE_BOUND('',#378,.F.);
#378 = EDGE_LOOP('',(#379,#380,#381,#389));
#379 = ORIENTED_EDGE('',*,*,#159,.F.);
#380 = ORIENTED_EDGE('',*,*,#110,.T.);
#381 = ORIENTED_EDGE('',*,*,#382,.F.);
#382 = EDGE_CURVE('',#383,#111,#385,.T.);
#383 = VERTEX_POINT('',#384);
#384 = CARTESIAN_POINT('',(103.5,-4.,4.440892098501E-16));
#385 = LINE('',#386,#387);
#386 = CARTESIAN_POINT('',(103.5,-4.,4.440892098501E-16));
#387 = VECTOR('',#388,1.);
#388 = DIRECTION('',(-1.,2.719262146894E-32,1.224646799147E-16));
#389 = ORIENTED_EDGE('',*,*,#390,.F.);
#390 = EDGE_CURVE('',#160,#383,#391,.T.);
#391 = CIRCLE('',#392,4.);
#392 = AXIS2_PLACEMENT_3D('',#393,#394,#395);
#393 = CARTESIAN_POINT('',(103.5,-4.,4.));
#394 = DIRECTION('',(-1.,2.719262146894E-32,1.224646799147E-16));
#395 = DIRECTION('',(-3.752598180869E-32,1.,-5.284675003657E-16));
#396 = CYLINDRICAL_SURFACE('',#397,4.);
#397 = AXIS2_PLACEMENT_3D('',#398,#399,#400);
#398 = CARTESIAN_POINT('',(103.5,-4.,4.));
#399 = DIRECTION('',(1.,-2.719262146894E-32,-1.224646799147E-16));
#400 = DIRECTION('',(-3.752598180869E-32,1.,-5.284675003657E-16));
#401 = ADVANCED_FACE('',(#402,#420,#431),#442,.F.);
#402 = FACE_BOUND('',#403,.F.);
#403 = EDGE_LOOP('',(#404,#405,#406,#414));
#404 = ORIENTED_EDGE('',*,*,#382,.T.);
#405 = ORIENTED_EDGE('',*,*,#119,.T.);
#406 = ORIENTED_EDGE('',*,*,#407,.F.);
#407 = EDGE_CURVE('',#408,#120,#410,.T.);
#408 = VERTEX_POINT('',#409);
#409 = CARTESIAN_POINT('',(103.5,-26.7381,3.552713678801E-15));
#410 = LINE('',#411,#412);
#411 = CARTESIAN_POINT('',(103.5,-26.7381,3.552713678801E-15));
#412 = VECTOR('',#413,1.);
#413 = DIRECTION('',(-1.,2.719262146894E-32,1.224646799147E-16));
#414 = ORIENTED_EDGE('',*,*,#415,.F.);
#415 = EDGE_CURVE('',#383,#408,#416,.T.);
#416 = LINE('',#417,#418);
#417 = CARTESIAN_POINT('',(103.5,-4.,4.440892098501E-16));
#418 = VECTOR('',#419,1.);
#419 = DIRECTION('',(-9.567244921585E-33,-1.,1.439221215425E-16));
#420 = FACE_BOUND('',#421,.F.);
#421 = EDGE_LOOP('',(#422));
#422 = ORIENTED_EDGE('',*,*,#423,.F.);
#423 = EDGE_CURVE('',#424,#424,#426,.T.);
#424 = VERTEX_POINT('',#425);
#425 = CARTESIAN_POINT('',(-80.,-9.7381,2.442490654175E-14));
#426 = CIRCLE('',#427,4.5);
#427 = AXIS2_PLACEMENT_3D('',#428,#429,#430);
#428 = CARTESIAN_POINT('',(-80.,-14.2381,2.531308496145E-14));
#429 = DIRECTION('',(1.224646799147E-16,1.608122649677E-16,1.));
#430 = DIRECTION('',(7.498798913309E-33,1.,-1.608122649677E-16));
#431 = FACE_BOUND('',#432,.F.);
#432 = EDGE_LOOP('',(#433));
#433 = ORIENTED_EDGE('',*,*,#434,.F.);
#434 = EDGE_CURVE('',#435,#435,#437,.T.);
#435 = VERTEX_POINT('',#436);
#436 = CARTESIAN_POINT('',(80.,-9.7381,4.440892098501E-15));
#437 = CIRCLE('',#438,4.5);
#438 = AXIS2_PLACEMENT_3D('',#439,#440,#441);
#439 = CARTESIAN_POINT('',(80.,-14.2381,6.217248937901E-15));
#440 = DIRECTION('',(1.224646799147E-16,1.608122649677E-16,1.));
#441 = DIRECTION('',(7.498798913309E-33,1.,-1.608122649677E-16));
#442 = PLANE('',#443);
#443 = AXIS2_PLACEMENT_3D('',#444,#445,#446);
#444 = CARTESIAN_POINT('',(103.5,-4.,4.440892098501E-16));
#445 = DIRECTION('',(1.224646799147E-16,1.439221215425E-16,1.));
#446 = DIRECTION('',(-9.567244921585E-33,-1.,1.439221215425E-16));
#447 = ADVANCED_FACE('',(#448),#466,.F.);
#448 = FACE_BOUND('',#449,.F.);
#449 = EDGE_LOOP('',(#450,#451,#452,#460));
#450 = ORIENTED_EDGE('',*,*,#407,.T.);
#451 = ORIENTED_EDGE('',*,*,#127,.T.);
#452 = ORIENTED_EDGE('',*,*,#453,.F.);
#453 = EDGE_CURVE('',#454,#128,#456,.T.);
#454 = VERTEX_POINT('',#455);
#455 = CARTESIAN_POINT('',(103.5,-26.7381,2.));
#456 = LINE('',#457,#458);
#457 = CARTESIAN_POINT('',(103.5,-26.7381,2.));
#458 = VECTOR('',#459,1.);
#459 = DIRECTION('',(-1.,2.719262146894E-32,1.224646799147E-16));
#460 = ORIENTED_EDGE('',*,*,#461,.F.);
#461 = EDGE_CURVE('',#408,#454,#462,.T.);
#462 = LINE('',#463,#464);
#463 = CARTESIAN_POINT('',(103.5,-26.7381,3.552713678801E-15));
#464 = VECTOR('',#465,1.);
#465 = DIRECTION('',(1.224646799147E-16,2.22044604925E-16,1.));
#466 = PLANE('',#467);
#467 = AXIS2_PLACEMENT_3D('',#468,#469,#470);
#468 = CARTESIAN_POINT('',(103.5,-26.7381,3.552713678801E-15));
#469 = DIRECTION('',(-0.,1.,-2.22044604925E-16));
#470 = DIRECTION('',(1.224646799147E-16,2.22044604925E-16,1.));
#471 = ADVANCED_FACE('',(#472,#490,#501),#512,.F.);
#472 = FACE_BOUND('',#473,.F.);
#473 = EDGE_LOOP('',(#474,#475,#476,#484));
#474 = ORIENTED_EDGE('',*,*,#453,.T.);
#475 = ORIENTED_EDGE('',*,*,#135,.T.);
#476 = ORIENTED_EDGE('',*,*,#477,.F.);
#477 = EDGE_CURVE('',#478,#136,#480,.T.);
#478 = VERTEX_POINT('',#479);
#479 = CARTESIAN_POINT('',(103.5,-4.,2.));
#480 = LINE('',#481,#482);
#481 = CARTESIAN_POINT('',(103.5,-4.,2.));
#482 = VECTOR('',#483,1.);
#483 = DIRECTION('',(-1.,2.719262146894E-32,1.224646799147E-16));
#484 = ORIENTED_EDGE('',*,*,#485,.F.);
#485 = EDGE_CURVE('',#454,#478,#486,.T.);
#486 = LINE('',#487,#488);
#487 = CARTESIAN_POINT('',(103.5,-26.7381,2.));
#488 = VECTOR('',#489,1.);
#489 = DIRECTION('',(7.175433691189E-33,1.,-1.634527423881E-16));
#490 = FACE_BOUND('',#491,.F.);
#491 = EDGE_LOOP('',(#492));
#492 = ORIENTED_EDGE('',*,*,#493,.T.);
#493 = EDGE_CURVE('',#494,#494,#496,.T.);
#494 = VERTEX_POINT('',#495);
#495 = CARTESIAN_POINT('',(-80.,-9.7381,2.));
#496 = CIRCLE('',#497,4.5);
#497 = AXIS2_PLACEMENT_3D('',#498,#499,#500);
#498 = CARTESIAN_POINT('',(-80.,-14.2381,2.));
#499 = DIRECTION('',(1.224646799147E-16,1.608122649677E-16,1.));
#500 = DIRECTION('',(7.498798913309E-33,1.,-1.608122649677E-16));
#501 = FACE_BOUND('',#502,.F.);
#502 = EDGE_LOOP('',(#503));
#503 = ORIENTED_EDGE('',*,*,#504,.T.);
#504 = EDGE_CURVE('',#505,#505,#507,.T.);
#505 = VERTEX_POINT('',#506);
#506 = CARTESIAN_POINT('',(80.,-9.7381,2.));
#507 = CIRCLE('',#508,4.5);
#508 = AXIS2_PLACEMENT_3D('',#509,#510,#511);
#509 = CARTESIAN_POINT('',(80.,-14.2381,2.));
#510 = DIRECTION('',(1.224646799147E-16,1.608122649677E-16,1.));
#511 = DIRECTION('',(7.498798913309E-33,1.,-1.608122649677E-16));
#512 = PLANE('',#513);
#513 = AXIS2_PLACEMENT_3D('',#514,#515,#516);
#514 = CARTESIAN_POINT('',(103.5,-26.7381,2.));
#515 = DIRECTION('',(-1.224646799147E-16,-1.634527423881E-16,-1.));
#516 = DIRECTION('',(7.175433691189E-33,1.,-1.634527423881E-16));
#517 = ADVANCED_FACE('',(#518),#530,.F.);
#518 = FACE_BOUND('',#519,.F.);
#519 = EDGE_LOOP('',(#520,#521,#522,#523));
#520 = ORIENTED_EDGE('',*,*,#477,.T.);
#521 = ORIENTED_EDGE('',*,*,#143,.T.);
#522 = ORIENTED_EDGE('',*,*,#190,.T.);
#523 = ORIENTED_EDGE('',*,*,#524,.F.);
#524 = EDGE_CURVE('',#478,#191,#525,.T.);
#525 = CIRCLE('',#526,2.);
#526 = AXIS2_PLACEMENT_3D('',#527,#528,#529);
#527 = CARTESIAN_POINT('',(103.5,-4.,4.));
#528 = DIRECTION('',(1.,-2.719262146894E-32,-1.224646799147E-16));
#529 = DIRECTION('',(-1.224646799147E-16,2.22044604925E-16,-1.));
#530 = CYLINDRICAL_SURFACE('',#531,2.);
#531 = AXIS2_PLACEMENT_3D('',#532,#533,#534);
#532 = CARTESIAN_POINT('',(103.5,-4.,4.));
#533 = DIRECTION('',(1.,-2.719262146894E-32,-1.224646799147E-16));
#534 = DIRECTION('',(-1.224646799147E-16,2.22044604925E-16,-1.));
#535 = ADVANCED_FACE('',(#536),#552,.F.);
#536 = FACE_BOUND('',#537,.F.);
#537 = EDGE_LOOP('',(#538,#544,#545,#551));
#538 = ORIENTED_EDGE('',*,*,#539,.T.);
#539 = EDGE_CURVE('',#160,#191,#540,.T.);
#540 = LINE('',#541,#542);
#541 = CARTESIAN_POINT('',(103.5,0.,4.));
#542 = VECTOR('',#543,1.);
#543 = DIRECTION('',(0.,-1.,2.22044604925E-16));
#544 = ORIENTED_EDGE('',*,*,#198,.T.);
#545 = ORIENTED_EDGE('',*,*,#546,.F.);
#546 = EDGE_CURVE('',#168,#199,#547,.T.);
#547 = LINE('',#548,#549);
#548 = CARTESIAN_POINT('',(71.,2.119995290428E-14,99.4761));
#549 = VECTOR('',#550,1.);
#550 = DIRECTION('',(0.,-1.,2.22044604925E-16));
#551 = ORIENTED_EDGE('',*,*,#167,.F.);
#552 = PLANE('',#553);
#553 = AXIS2_PLACEMENT_3D('',#554,#555,#556);
#554 = CARTESIAN_POINT('',(103.5,0.,4.));
#555 = DIRECTION('',(-0.946657474268,-7.155200105968E-17,-0.32224156531)
  );
#556 = DIRECTION('',(-0.32224156531,2.102001848731E-16,0.946657474268));
#557 = ADVANCED_FACE('',(#558),#566,.T.);
#558 = FACE_BOUND('',#559,.T.);
#559 = EDGE_LOOP('',(#560,#561,#562,#563,#564,#565));
#560 = ORIENTED_EDGE('',*,*,#222,.T.);
#561 = ORIENTED_EDGE('',*,*,#247,.T.);
#562 = ORIENTED_EDGE('',*,*,#293,.T.);
#563 = ORIENTED_EDGE('',*,*,#317,.T.);
#564 = ORIENTED_EDGE('',*,*,#363,.T.);
#565 = ORIENTED_EDGE('',*,*,#546,.F.);
#566 = PLANE('',#567);
#567 = AXIS2_PLACEMENT_3D('',#568,#569,#570);
#568 = CARTESIAN_POINT('',(71.,-17.11592639009,102.28044256952));
#569 = DIRECTION('',(1.,0.,0.));
#570 = DIRECTION('',(0.,-1.,2.22044604925E-16));
#571 = ADVANCED_FACE('',(#572),#583,.F.);
#572 = FACE_BOUND('',#573,.F.);
#573 = EDGE_LOOP('',(#574,#575,#581,#582));
#574 = ORIENTED_EDGE('',*,*,#334,.F.);
#575 = ORIENTED_EDGE('',*,*,#576,.F.);
#576 = EDGE_CURVE('',#265,#335,#577,.T.);
#577 = LINE('',#578,#579);
#578 = CARTESIAN_POINT('',(52.5,-14.2381,106.4761));
#579 = VECTOR('',#580,1.);
#580 = DIRECTION('',(6.016155777704E-49,-2.832769448824E-16,-1.));
#581 = ORIENTED_EDGE('',*,*,#264,.T.);
#582 = ORIENTED_EDGE('',*,*,#576,.T.);
#583 = CYLINDRICAL_SURFACE('',#584,4.5);
#584 = AXIS2_PLACEMENT_3D('',#585,#586,#587);
#585 = CARTESIAN_POINT('',(52.5,-18.7381,106.4761));
#586 = DIRECTION('',(0.,-2.832769448824E-16,-1.));
#587 = DIRECTION('',(0.,1.,-2.832769448824E-16));
#588 = ADVANCED_FACE('',(#589),#600,.F.);
#589 = FACE_BOUND('',#590,.F.);
#590 = EDGE_LOOP('',(#591,#592,#598,#599));
#591 = ORIENTED_EDGE('',*,*,#345,.F.);
#592 = ORIENTED_EDGE('',*,*,#593,.F.);
#593 = EDGE_CURVE('',#276,#346,#594,.T.);
#594 = LINE('',#595,#596);
#595 = CARTESIAN_POINT('',(-52.5,-14.2381,106.4761));
#596 = VECTOR('',#597,1.);
#597 = DIRECTION('',(6.016155777704E-49,-2.832769448824E-16,-1.));
#598 = ORIENTED_EDGE('',*,*,#275,.T.);
#599 = ORIENTED_EDGE('',*,*,#593,.T.);
#600 = CYLINDRICAL_SURFACE('',#601,4.5);
#601 = AXIS2_PLACEMENT_3D('',#602,#603,#604);
#602 = CARTESIAN_POINT('',(-52.5,-18.7381,106.4761));
#603 = DIRECTION('',(0.,-2.832769448824E-16,-1.));
#604 = DIRECTION('',(0.,1.,-2.832769448824E-16));
#605 = ADVANCED_FACE('',(#606),#614,.F.);
#606 = FACE_BOUND('',#607,.F.);
#607 = EDGE_LOOP('',(#608,#609,#610,#611,#612,#613));
#608 = ORIENTED_EDGE('',*,*,#390,.T.);
#609 = ORIENTED_EDGE('',*,*,#415,.T.);
#610 = ORIENTED_EDGE('',*,*,#461,.T.);
#611 = ORIENTED_EDGE('',*,*,#485,.T.);
#612 = ORIENTED_EDGE('',*,*,#524,.T.);
#613 = ORIENTED_EDGE('',*,*,#539,.F.);
#614 = PLANE('',#615);
#615 = AXIS2_PLACEMENT_3D('',#616,#617,#618);
#616 = CARTESIAN_POINT('',(103.5,-13.13667631797,1.248903265547));
#617 = DIRECTION('',(-1.,2.719262146894E-32,1.224646799147E-16));
#618 = DIRECTION('',(0.,-1.,2.22044604925E-16));
#619 = ADVANCED_FACE('',(#620),#631,.F.);
#620 = FACE_BOUND('',#621,.F.);
#621 = EDGE_LOOP('',(#622,#623,#629,#630));
#622 = ORIENTED_EDGE('',*,*,#493,.F.);
#623 = ORIENTED_EDGE('',*,*,#624,.F.);
#624 = EDGE_CURVE('',#424,#494,#625,.T.);
#625 = LINE('',#626,#627);
#626 = CARTESIAN_POINT('',(-80.,-9.7381,-3.));
#627 = VECTOR('',#628,1.);
#628 = DIRECTION('',(1.224646799147E-16,1.608122649677E-16,1.));
#629 = ORIENTED_EDGE('',*,*,#423,.T.);
#630 = ORIENTED_EDGE('',*,*,#624,.T.);
#631 = CYLINDRICAL_SURFACE('',#632,4.5);
#632 = AXIS2_PLACEMENT_3D('',#633,#634,#635);
#633 = CARTESIAN_POINT('',(-80.,-14.2381,-3.));
#634 = DIRECTION('',(1.224646799147E-16,1.608122649677E-16,1.));
#635 = DIRECTION('',(7.498798913309E-33,1.,-1.608122649677E-16));
#636 = ADVANCED_FACE('',(#637),#648,.F.);
#637 = FACE_BOUND('',#638,.F.);
#638 = EDGE_LOOP('',(#639,#640,#646,#647));
#639 = ORIENTED_EDGE('',*,*,#504,.F.);
#640 = ORIENTED_EDGE('',*,*,#641,.F.);
#641 = EDGE_CURVE('',#435,#505,#642,.T.);
#642 = LINE('',#643,#644);
#643 = CARTESIAN_POINT('',(80.,-9.7381,-3.));
#644 = VECTOR('',#645,1.);
#645 = DIRECTION('',(1.224646799147E-16,1.608122649677E-16,1.));
#646 = ORIENTED_EDGE('',*,*,#434,.T.);
#647 = ORIENTED_EDGE('',*,*,#641,.T.);
#648 = CYLINDRICAL_SURFACE('',#649,4.5);
#649 = AXIS2_PLACEMENT_3D('',#650,#651,#652);
#650 = CARTESIAN_POINT('',(80.,-14.2381,-3.));
#651 = DIRECTION('',(1.224646799147E-16,1.608122649677E-16,1.));
#652 = DIRECTION('',(7.498798913309E-33,1.,-1.608122649677E-16));
#653 = ( GEOMETRIC_REPRESENTATION_CONTEXT(3) 
GLOBAL_UNCERTAINTY_ASSIGNED_CONTEXT((#657)) GLOBAL_UNIT_ASSIGNED_CONTEXT
((#654,#655,#656)) REPRESENTATION_CONTEXT('Context #1',
  '3D Context with UNIT and UNCERTAINTY') );
#654 = ( LENGTH_UNIT() NAMED_UNIT(*) SI_UNIT(.MILLI.,.METRE.) );
#655 = ( NAMED_UNIT(*) PLANE_ANGLE_UNIT() SI_UNIT($,.RADIAN.) );
#656 = ( NAMED_UNIT(*) SI_UNIT($,.STERADIAN.) SOLID_ANGLE_UNIT() );
#657 = UNCERTAINTY_MEASURE_WITH_UNIT(LENGTH_MEASURE(1.E-07),#654,
  'distance_accuracy_value','confusion accuracy');
#658 = PRODUCT_RELATED_PRODUCT_CATEGORY('part',$,(#7));
ENDSEC;
END-ISO-10303-21;
