ISO-10303-21;
HEADER;
FILE_DESCRIPTION(('FreeCAD Model'),'2;1');
FILE_NAME('Open CASCADE Shape Model','2026-08-09T12:27:42',('FreeCAD'),(
    'FreeCAD'),'Open CASCADE STEP processor 7.9','FreeCAD','Unknown');
FILE_SCHEMA(('AUTOMOTIVE_DESIGN { 1 0 10303 214 1 1 1 1 }'));
ENDSEC;
DATA;
#1 = APPLICATION_PROTOCOL_DEFINITION('international standard',
  'automotive_design',2000,#2);
#2 = APPLICATION_CONTEXT(
  'core data for automotive mechanical design processes');
#3 = SHAPE_DEFINITION_REPRESENTATION(#4,#10);
#4 = PRODUCT_DEFINITION_SHAPE('','',#5);
#5 = PRODUCT_DEFINITION('design','',#6,#9);
#6 = PRODUCT_DEFINITION_FORMATION('','',#7);
#7 = PRODUCT('Open CASCADE STEP translator 7.9 1',
  'Open CASCADE STEP translator 7.9 1','',(#8));
#8 = PRODUCT_CONTEXT('',#2,'mechanical');
#9 = PRODUCT_DEFINITION_CONTEXT('part definition',#2,'design');
#10 = ADVANCED_BREP_SHAPE_REPRESENTATION('',(#11,#15),#1300);
#11 = AXIS2_PLACEMENT_3D('',#12,#13,#14);
#12 = CARTESIAN_POINT('',(0.,0.,0.));
#13 = DIRECTION('',(0.,0.,1.));
#14 = DIRECTION('',(1.,0.,-0.));
#15 = MANIFOLD_SOLID_BREP('',#16);
#16 = CLOSED_SHELL('',(#17,#65,#98,#127,#150,#180,#213,#260,#298,#336,
    #361,#384,#409,#432,#465,#488,#518,#551,#575,#592,#609,#633,#650,
    #689,#727,#765,#789,#814,#839,#884,#895,#924,#941,#974,#998,#1015,
    #1032,#1056,#1073,#1098,#1123,#1141,#1166,#1191,#1214,#1231,#1248,
    #1272,#1289));
#17 = ADVANCED_FACE('',(#18),#60,.T.);
#18 = FACE_BOUND('',#19,.T.);
#19 = EDGE_LOOP('',(#20,#30,#38,#46,#54));
#20 = ORIENTED_EDGE('',*,*,#21,.T.);
#21 = EDGE_CURVE('',#22,#24,#26,.T.);
#22 = VERTEX_POINT('',#23);
#23 = CARTESIAN_POINT('',(72.,6.,0.));
#24 = VERTEX_POINT('',#25);
#25 = CARTESIAN_POINT('',(72.,6.,110.));
#26 = LINE('',#27,#28);
#27 = CARTESIAN_POINT('',(72.,6.,0.));
#28 = VECTOR('',#29,1.);
#29 = DIRECTION('',(0.,0.,1.));
#30 = ORIENTED_EDGE('',*,*,#31,.T.);
#31 = EDGE_CURVE('',#24,#32,#34,.T.);
#32 = VERTEX_POINT('',#33);
#33 = CARTESIAN_POINT('',(72.,6.2,110.));
#34 = LINE('',#35,#36);
#35 = CARTESIAN_POINT('',(72.,0.,110.));
#36 = VECTOR('',#37,1.);
#37 = DIRECTION('',(0.,1.,0.));
#38 = ORIENTED_EDGE('',*,*,#39,.T.);
#39 = EDGE_CURVE('',#32,#40,#42,.T.);
#40 = VERTEX_POINT('',#41);
#41 = CARTESIAN_POINT('',(72.,50.,110.));
#42 = LINE('',#43,#44);
#43 = CARTESIAN_POINT('',(72.,0.,110.));
#44 = VECTOR('',#45,1.);
#45 = DIRECTION('',(0.,1.,0.));
#46 = ORIENTED_EDGE('',*,*,#47,.F.);
#47 = EDGE_CURVE('',#48,#40,#50,.T.);
#48 = VERTEX_POINT('',#49);
#49 = CARTESIAN_POINT('',(72.,50.,0.));
#50 = LINE('',#51,#52);
#51 = CARTESIAN_POINT('',(72.,50.,0.));
#52 = VECTOR('',#53,1.);
#53 = DIRECTION('',(0.,0.,1.));
#54 = ORIENTED_EDGE('',*,*,#55,.F.);
#55 = EDGE_CURVE('',#22,#48,#56,.T.);
#56 = LINE('',#57,#58);
#57 = CARTESIAN_POINT('',(72.,0.,0.));
#58 = VECTOR('',#59,1.);
#59 = DIRECTION('',(0.,1.,0.));
#60 = PLANE('',#61);
#61 = AXIS2_PLACEMENT_3D('',#62,#63,#64);
#62 = CARTESIAN_POINT('',(72.,6.,0.));
#63 = DIRECTION('',(-1.,0.,0.));
#64 = DIRECTION('',(0.,1.,0.));
#65 = ADVANCED_FACE('',(#66),#93,.F.);
#66 = FACE_BOUND('',#67,.T.);
#67 = EDGE_LOOP('',(#68,#78,#85,#86));
#68 = ORIENTED_EDGE('',*,*,#69,.T.);
#69 = EDGE_CURVE('',#70,#72,#74,.T.);
#70 = VERTEX_POINT('',#71);
#71 = CARTESIAN_POINT('',(69.,3.,0.));
#72 = VERTEX_POINT('',#73);
#73 = CARTESIAN_POINT('',(69.,3.,110.));
#74 = LINE('',#75,#76);
#75 = CARTESIAN_POINT('',(69.,3.,0.));
#76 = VECTOR('',#77,1.);
#77 = DIRECTION('',(0.,0.,1.));
#78 = ORIENTED_EDGE('',*,*,#79,.T.);
#79 = EDGE_CURVE('',#72,#24,#80,.T.);
#80 = CIRCLE('',#81,3.);
#81 = AXIS2_PLACEMENT_3D('',#82,#83,#84);
#82 = CARTESIAN_POINT('',(69.,6.,110.));
#83 = DIRECTION('',(-0.,0.,1.));
#84 = DIRECTION('',(0.,-1.,0.));
#85 = ORIENTED_EDGE('',*,*,#21,.F.);
#86 = ORIENTED_EDGE('',*,*,#87,.F.);
#87 = EDGE_CURVE('',#70,#22,#88,.T.);
#88 = CIRCLE('',#89,3.);
#89 = AXIS2_PLACEMENT_3D('',#90,#91,#92);
#90 = CARTESIAN_POINT('',(69.,6.,0.));
#91 = DIRECTION('',(-0.,0.,1.));
#92 = DIRECTION('',(0.,-1.,0.));
#93 = CYLINDRICAL_SURFACE('',#94,3.);
#94 = AXIS2_PLACEMENT_3D('',#95,#96,#97);
#95 = CARTESIAN_POINT('',(69.,6.,0.));
#96 = DIRECTION('',(0.,0.,-1.));
#97 = DIRECTION('',(0.,-1.,0.));
#98 = ADVANCED_FACE('',(#99),#122,.T.);
#99 = FACE_BOUND('',#100,.T.);
#100 = EDGE_LOOP('',(#101,#102,#109,#117));
#101 = ORIENTED_EDGE('',*,*,#47,.T.);
#102 = ORIENTED_EDGE('',*,*,#103,.T.);
#103 = EDGE_CURVE('',#40,#104,#106,.T.);
#104 = VERTEX_POINT('',#105);
#105 = CARTESIAN_POINT('',(75.,50.,110.));
#106 = B_SPLINE_CURVE_WITH_KNOTS('',1,(#107,#108),.UNSPECIFIED.,.F.,.F.,
  (2,2),(0.,1.),.PIECEWISE_BEZIER_KNOTS.);
#107 = CARTESIAN_POINT('',(72.,50.,110.));
#108 = CARTESIAN_POINT('',(75.,50.,110.));
#109 = ORIENTED_EDGE('',*,*,#110,.F.);
#110 = EDGE_CURVE('',#111,#104,#113,.T.);
#111 = VERTEX_POINT('',#112);
#112 = CARTESIAN_POINT('',(75.,50.,0.));
#113 = LINE('',#114,#115);
#114 = CARTESIAN_POINT('',(75.,50.,0.));
#115 = VECTOR('',#116,1.);
#116 = DIRECTION('',(0.,0.,1.));
#117 = ORIENTED_EDGE('',*,*,#118,.F.);
#118 = EDGE_CURVE('',#48,#111,#119,.T.);
#119 = B_SPLINE_CURVE_WITH_KNOTS('',1,(#120,#121),.UNSPECIFIED.,.F.,.F.,
  (2,2),(0.,1.),.PIECEWISE_BEZIER_KNOTS.);
#120 = CARTESIAN_POINT('',(72.,50.,0.));
#121 = CARTESIAN_POINT('',(75.,50.,0.));
#122 = PLANE('',#123);
#123 = AXIS2_PLACEMENT_3D('',#124,#125,#126);
#124 = CARTESIAN_POINT('',(75.,50.,0.));
#125 = DIRECTION('',(0.,1.,0.));
#126 = DIRECTION('',(0.,0.,1.));
#127 = ADVANCED_FACE('',(#128),#145,.T.);
#128 = FACE_BOUND('',#129,.T.);
#129 = EDGE_LOOP('',(#130,#131,#132,#140));
#130 = ORIENTED_EDGE('',*,*,#55,.T.);
#131 = ORIENTED_EDGE('',*,*,#118,.T.);
#132 = ORIENTED_EDGE('',*,*,#133,.F.);
#133 = EDGE_CURVE('',#134,#111,#136,.T.);
#134 = VERTEX_POINT('',#135);
#135 = CARTESIAN_POINT('',(75.,6.,0.));
#136 = LINE('',#137,#138);
#137 = CARTESIAN_POINT('',(75.,0.,0.));
#138 = VECTOR('',#139,1.);
#139 = DIRECTION('',(0.,1.,0.));
#140 = ORIENTED_EDGE('',*,*,#141,.F.);
#141 = EDGE_CURVE('',#22,#134,#142,.T.);
#142 = B_SPLINE_CURVE_WITH_KNOTS('',1,(#143,#144),.UNSPECIFIED.,.F.,.F.,
  (2,2),(0.,1.),.PIECEWISE_BEZIER_KNOTS.);
#143 = CARTESIAN_POINT('',(72.,6.,0.));
#144 = CARTESIAN_POINT('',(75.,6.,0.));
#145 = PLANE('',#146);
#146 = AXIS2_PLACEMENT_3D('',#147,#148,#149);
#147 = CARTESIAN_POINT('',(75.,0.,0.));
#148 = DIRECTION('',(0.,0.,-1.));
#149 = DIRECTION('',(0.,1.,0.));
#150 = ADVANCED_FACE('',(#151),#175,.T.);
#151 = FACE_BOUND('',#152,.T.);
#152 = EDGE_LOOP('',(#153,#154,#161,#169));
#153 = ORIENTED_EDGE('',*,*,#31,.F.);
#154 = ORIENTED_EDGE('',*,*,#155,.T.);
#155 = EDGE_CURVE('',#24,#156,#158,.T.);
#156 = VERTEX_POINT('',#157);
#157 = CARTESIAN_POINT('',(75.,6.,110.));
#158 = B_SPLINE_CURVE_WITH_KNOTS('',1,(#159,#160),.UNSPECIFIED.,.F.,.F.,
  (2,2),(0.,1.),.PIECEWISE_BEZIER_KNOTS.);
#159 = CARTESIAN_POINT('',(72.,6.,110.));
#160 = CARTESIAN_POINT('',(75.,6.,110.));
#161 = ORIENTED_EDGE('',*,*,#162,.T.);
#162 = EDGE_CURVE('',#156,#163,#165,.T.);
#163 = VERTEX_POINT('',#164);
#164 = CARTESIAN_POINT('',(75.,6.2,110.));
#165 = LINE('',#166,#167);
#166 = CARTESIAN_POINT('',(75.,0.,110.));
#167 = VECTOR('',#168,1.);
#168 = DIRECTION('',(0.,1.,0.));
#169 = ORIENTED_EDGE('',*,*,#170,.T.);
#170 = EDGE_CURVE('',#163,#32,#171,.T.);
#171 = LINE('',#172,#173);
#172 = CARTESIAN_POINT('',(75.,6.2,110.));
#173 = VECTOR('',#174,1.);
#174 = DIRECTION('',(-1.,0.,0.));
#175 = PLANE('',#176);
#176 = AXIS2_PLACEMENT_3D('',#177,#178,#179);
#177 = CARTESIAN_POINT('',(75.,0.,110.));
#178 = DIRECTION('',(0.,0.,1.));
#179 = DIRECTION('',(0.,-1.,0.));
#180 = ADVANCED_FACE('',(#181),#208,.F.);
#181 = FACE_BOUND('',#182,.T.);
#182 = EDGE_LOOP('',(#183,#192,#200,#207));
#183 = ORIENTED_EDGE('',*,*,#184,.T.);
#184 = EDGE_CURVE('',#32,#185,#187,.T.);
#185 = VERTEX_POINT('',#186);
#186 = CARTESIAN_POINT('',(69.,6.2,113.));
#187 = CIRCLE('',#188,3.);
#188 = AXIS2_PLACEMENT_3D('',#189,#190,#191);
#189 = CARTESIAN_POINT('',(69.,6.2,110.));
#190 = DIRECTION('',(0.,-1.,0.));
#191 = DIRECTION('',(1.,0.,0.));
#192 = ORIENTED_EDGE('',*,*,#193,.T.);
#193 = EDGE_CURVE('',#185,#194,#196,.T.);
#194 = VERTEX_POINT('',#195);
#195 = CARTESIAN_POINT('',(69.,50.,113.));
#196 = LINE('',#197,#198);
#197 = CARTESIAN_POINT('',(69.,6.2,113.));
#198 = VECTOR('',#199,1.);
#199 = DIRECTION('',(0.,1.,0.));
#200 = ORIENTED_EDGE('',*,*,#201,.F.);
#201 = EDGE_CURVE('',#40,#194,#202,.T.);
#202 = CIRCLE('',#203,3.);
#203 = AXIS2_PLACEMENT_3D('',#204,#205,#206);
#204 = CARTESIAN_POINT('',(69.,50.,110.));
#205 = DIRECTION('',(0.,-1.,0.));
#206 = DIRECTION('',(1.,0.,0.));
#207 = ORIENTED_EDGE('',*,*,#39,.F.);
#208 = CYLINDRICAL_SURFACE('',#209,3.);
#209 = AXIS2_PLACEMENT_3D('',#210,#211,#212);
#210 = CARTESIAN_POINT('',(69.,6.2,110.));
#211 = DIRECTION('',(0.,1.,0.));
#212 = DIRECTION('',(1.,0.,0.));
#213 = ADVANCED_FACE('',(#214),#255,.T.);
#214 = FACE_BOUND('',#215,.T.);
#215 = EDGE_LOOP('',(#216,#226,#234,#242,#248,#249));
#216 = ORIENTED_EDGE('',*,*,#217,.T.);
#217 = EDGE_CURVE('',#218,#220,#222,.T.);
#218 = VERTEX_POINT('',#219);
#219 = CARTESIAN_POINT('',(-69.,3.,0.));
#220 = VERTEX_POINT('',#221);
#221 = CARTESIAN_POINT('',(-69.,3.,110.));
#222 = LINE('',#223,#224);
#223 = CARTESIAN_POINT('',(-69.,3.,0.));
#224 = VECTOR('',#225,1.);
#225 = DIRECTION('',(0.,0.,1.));
#226 = ORIENTED_EDGE('',*,*,#227,.T.);
#227 = EDGE_CURVE('',#220,#228,#230,.T.);
#228 = VERTEX_POINT('',#229);
#229 = CARTESIAN_POINT('',(-68.8,3.,110.));
#230 = LINE('',#231,#232);
#231 = CARTESIAN_POINT('',(-75.,3.,110.));
#232 = VECTOR('',#233,1.);
#233 = DIRECTION('',(1.,0.,0.));
#234 = ORIENTED_EDGE('',*,*,#235,.T.);
#235 = EDGE_CURVE('',#228,#236,#238,.T.);
#236 = VERTEX_POINT('',#237);
#237 = CARTESIAN_POINT('',(68.8,3.,110.));
#238 = LINE('',#239,#240);
#239 = CARTESIAN_POINT('',(-75.,3.,110.));
#240 = VECTOR('',#241,1.);
#241 = DIRECTION('',(1.,0.,0.));
#242 = ORIENTED_EDGE('',*,*,#243,.T.);
#243 = EDGE_CURVE('',#236,#72,#244,.T.);
#244 = LINE('',#245,#246);
#245 = CARTESIAN_POINT('',(-75.,3.,110.));
#246 = VECTOR('',#247,1.);
#247 = DIRECTION('',(1.,0.,0.));
#248 = ORIENTED_EDGE('',*,*,#69,.F.);
#249 = ORIENTED_EDGE('',*,*,#250,.F.);
#250 = EDGE_CURVE('',#218,#70,#251,.T.);
#251 = LINE('',#252,#253);
#252 = CARTESIAN_POINT('',(-75.,3.,0.));
#253 = VECTOR('',#254,1.);
#254 = DIRECTION('',(1.,0.,0.));
#255 = PLANE('',#256);
#256 = AXIS2_PLACEMENT_3D('',#257,#258,#259);
#257 = CARTESIAN_POINT('',(-69.,3.,0.));
#258 = DIRECTION('',(0.,1.,0.));
#259 = DIRECTION('',(1.,0.,0.));
#260 = ADVANCED_FACE('',(#261),#279,.T.);
#261 = FACE_BOUND('',#262,.T.);
#262 = EDGE_LOOP('',(#263,#264,#265,#274));
#263 = ORIENTED_EDGE('',*,*,#87,.T.);
#264 = ORIENTED_EDGE('',*,*,#141,.T.);
#265 = ORIENTED_EDGE('',*,*,#266,.F.);
#266 = EDGE_CURVE('',#267,#134,#269,.T.);
#267 = VERTEX_POINT('',#268);
#268 = CARTESIAN_POINT('',(69.,-4.440892142617E-16,0.));
#269 = CIRCLE('',#270,6.);
#270 = AXIS2_PLACEMENT_3D('',#271,#272,#273);
#271 = CARTESIAN_POINT('',(69.,6.,0.));
#272 = DIRECTION('',(-0.,0.,1.));
#273 = DIRECTION('',(0.,-1.,0.));
#274 = ORIENTED_EDGE('',*,*,#275,.F.);
#275 = EDGE_CURVE('',#70,#267,#276,.T.);
#276 = B_SPLINE_CURVE_WITH_KNOTS('',1,(#277,#278),.UNSPECIFIED.,.F.,.F.,
  (2,2),(0.,1.),.PIECEWISE_BEZIER_KNOTS.);
#277 = CARTESIAN_POINT('',(69.,3.,0.));
#278 = CARTESIAN_POINT('',(69.,-8.881784197001E-16,0.));
#279 = B_SPLINE_SURFACE_WITH_KNOTS('',8,1,(
    (#280,#281)
    ,(#282,#283)
    ,(#284,#285)
    ,(#286,#287)
    ,(#288,#289)
    ,(#290,#291)
    ,(#292,#293)
    ,(#294,#295)
    ,(#296,#297
    )),.UNSPECIFIED.,.F.,.F.,.F.,(9,9),(2,2),(0.,1.570796326795),(0.,1.)
  ,.PIECEWISE_BEZIER_KNOTS.);
#280 = CARTESIAN_POINT('',(69.,3.,0.));
#281 = CARTESIAN_POINT('',(69.,-1.110223024625E-15,0.));
#282 = CARTESIAN_POINT('',(69.589048622548,3.,0.));
#283 = CARTESIAN_POINT('',(70.178097245096,1.802328904858E-15,0.));
#284 = CARTESIAN_POINT('',(70.178097430513,3.132182366884,0.));
#285 = CARTESIAN_POINT('',(71.356194861024,0.264364733767,0.));
#286 = CARTESIAN_POINT('',(70.732539703004,3.396545802386,0.));
#287 = CARTESIAN_POINT('',(72.465079406012,0.793091604771,0.));
#288 = CARTESIAN_POINT('',(71.217776267341,3.78222373266,0.));
#289 = CARTESIAN_POINT('',(73.435552534677,1.564447465321,0.));
#290 = CARTESIAN_POINT('',(71.603454197613,4.267460296995,0.));
#291 = CARTESIAN_POINT('',(74.20690839523,2.53492059399,0.));
#292 = CARTESIAN_POINT('',(71.867817633117,4.821902569487,0.));
#293 = CARTESIAN_POINT('',(74.735635266232,3.643805138975,0.));
#294 = CARTESIAN_POINT('',(72.,5.410951377452,0.));
#295 = CARTESIAN_POINT('',(75.,4.821902754904,0.));
#296 = CARTESIAN_POINT('',(72.,6.,0.));
#297 = CARTESIAN_POINT('',(75.,6.,0.));
#298 = ADVANCED_FACE('',(#299),#317,.T.);
#299 = FACE_BOUND('',#300,.T.);
#300 = EDGE_LOOP('',(#301,#302,#309,#316));
#301 = ORIENTED_EDGE('',*,*,#79,.F.);
#302 = ORIENTED_EDGE('',*,*,#303,.T.);
#303 = EDGE_CURVE('',#72,#304,#306,.T.);
#304 = VERTEX_POINT('',#305);
#305 = CARTESIAN_POINT('',(69.,-4.440892142617E-16,110.));
#306 = B_SPLINE_CURVE_WITH_KNOTS('',1,(#307,#308),.UNSPECIFIED.,.F.,.F.,
  (2,2),(0.,1.),.PIECEWISE_BEZIER_KNOTS.);
#307 = CARTESIAN_POINT('',(69.,3.,110.));
#308 = CARTESIAN_POINT('',(69.,-1.110223024625E-15,110.));
#309 = ORIENTED_EDGE('',*,*,#310,.T.);
#310 = EDGE_CURVE('',#304,#156,#311,.T.);
#311 = CIRCLE('',#312,6.);
#312 = AXIS2_PLACEMENT_3D('',#313,#314,#315);
#313 = CARTESIAN_POINT('',(69.,6.,110.));
#314 = DIRECTION('',(-0.,0.,1.));
#315 = DIRECTION('',(0.,-1.,0.));
#316 = ORIENTED_EDGE('',*,*,#155,.F.);
#317 = B_SPLINE_SURFACE_WITH_KNOTS('',8,1,(
    (#318,#319)
    ,(#320,#321)
    ,(#322,#323)
    ,(#324,#325)
    ,(#326,#327)
    ,(#328,#329)
    ,(#330,#331)
    ,(#332,#333)
    ,(#334,#335
    )),.UNSPECIFIED.,.F.,.F.,.F.,(9,9),(2,2),(4.712388980385,
    6.28318530718),(0.,1.),.PIECEWISE_BEZIER_KNOTS.);
#318 = CARTESIAN_POINT('',(72.,6.,110.));
#319 = CARTESIAN_POINT('',(75.,6.,110.));
#320 = CARTESIAN_POINT('',(71.999999999999,5.410951377452,
    109.99999999999));
#321 = CARTESIAN_POINT('',(74.999999999999,4.821902754904,
    109.99999999999));
#322 = CARTESIAN_POINT('',(71.86781763312,4.821902569488,110.));
#323 = CARTESIAN_POINT('',(74.735635266236,3.643805138975,110.));
#324 = CARTESIAN_POINT('',(71.603454197609,4.267460296994,
    109.99999999999));
#325 = CARTESIAN_POINT('',(74.206908395223,2.53492059399,109.99999999999
    ));
#326 = CARTESIAN_POINT('',(71.217776267346,3.782223732661,110.));
#327 = CARTESIAN_POINT('',(73.435552534686,1.564447465321,110.));
#328 = CARTESIAN_POINT('',(70.732539703001,3.396545802385,
    109.99999999999));
#329 = CARTESIAN_POINT('',(72.465079406006,0.793091604771,
    109.99999999999));
#330 = CARTESIAN_POINT('',(70.178097430515,3.132182366884,110.));
#331 = CARTESIAN_POINT('',(71.356194861028,0.264364733767,110.));
#332 = CARTESIAN_POINT('',(69.589048622548,3.,109.99999999999));
#333 = CARTESIAN_POINT('',(70.178097245095,-1.252569476711E-14,
    109.99999999999));
#334 = CARTESIAN_POINT('',(69.,3.,110.));
#335 = CARTESIAN_POINT('',(69.,-1.110223024625E-15,110.));
#336 = ADVANCED_FACE('',(#337),#356,.F.);
#337 = FACE_BOUND('',#338,.T.);
#338 = EDGE_LOOP('',(#339,#340,#348,#355));
#339 = ORIENTED_EDGE('',*,*,#201,.T.);
#340 = ORIENTED_EDGE('',*,*,#341,.T.);
#341 = EDGE_CURVE('',#194,#342,#344,.T.);
#342 = VERTEX_POINT('',#343);
#343 = CARTESIAN_POINT('',(69.,50.,116.));
#344 = LINE('',#345,#346);
#345 = CARTESIAN_POINT('',(69.,50.,113.));
#346 = VECTOR('',#347,1.);
#347 = DIRECTION('',(1.110223024625E-16,0.,1.));
#348 = ORIENTED_EDGE('',*,*,#349,.F.);
#349 = EDGE_CURVE('',#104,#342,#350,.T.);
#350 = CIRCLE('',#351,6.);
#351 = AXIS2_PLACEMENT_3D('',#352,#353,#354);
#352 = CARTESIAN_POINT('',(69.,50.,110.));
#353 = DIRECTION('',(0.,-1.,0.));
#354 = DIRECTION('',(1.,0.,0.));
#355 = ORIENTED_EDGE('',*,*,#103,.F.);
#356 = PLANE('',#357);
#357 = AXIS2_PLACEMENT_3D('',#358,#359,#360);
#358 = CARTESIAN_POINT('',(69.,50.,110.));
#359 = DIRECTION('',(-0.,-1.,-0.));
#360 = DIRECTION('',(1.,0.,0.));
#361 = ADVANCED_FACE('',(#362),#379,.F.);
#362 = FACE_BOUND('',#363,.F.);
#363 = EDGE_LOOP('',(#364,#370,#371,#377,#378));
#364 = ORIENTED_EDGE('',*,*,#365,.T.);
#365 = EDGE_CURVE('',#134,#156,#366,.T.);
#366 = LINE('',#367,#368);
#367 = CARTESIAN_POINT('',(75.,6.,0.));
#368 = VECTOR('',#369,1.);
#369 = DIRECTION('',(0.,0.,1.));
#370 = ORIENTED_EDGE('',*,*,#162,.T.);
#371 = ORIENTED_EDGE('',*,*,#372,.T.);
#372 = EDGE_CURVE('',#163,#104,#373,.T.);
#373 = LINE('',#374,#375);
#374 = CARTESIAN_POINT('',(75.,0.,110.));
#375 = VECTOR('',#376,1.);
#376 = DIRECTION('',(0.,1.,0.));
#377 = ORIENTED_EDGE('',*,*,#110,.F.);
#378 = ORIENTED_EDGE('',*,*,#133,.F.);
#379 = PLANE('',#380);
#380 = AXIS2_PLACEMENT_3D('',#381,#382,#383);
#381 = CARTESIAN_POINT('',(75.,6.,0.));
#382 = DIRECTION('',(-1.,0.,0.));
#383 = DIRECTION('',(0.,1.,0.));
#384 = ADVANCED_FACE('',(#385),#404,.T.);
#385 = FACE_BOUND('',#386,.T.);
#386 = EDGE_LOOP('',(#387,#396,#402,#403));
#387 = ORIENTED_EDGE('',*,*,#388,.T.);
#388 = EDGE_CURVE('',#163,#389,#391,.T.);
#389 = VERTEX_POINT('',#390);
#390 = CARTESIAN_POINT('',(69.,6.2,116.));
#391 = CIRCLE('',#392,6.);
#392 = AXIS2_PLACEMENT_3D('',#393,#394,#395);
#393 = CARTESIAN_POINT('',(69.,6.2,110.));
#394 = DIRECTION('',(0.,-1.,0.));
#395 = DIRECTION('',(1.,0.,0.));
#396 = ORIENTED_EDGE('',*,*,#397,.T.);
#397 = EDGE_CURVE('',#389,#185,#398,.T.);
#398 = LINE('',#399,#400);
#399 = CARTESIAN_POINT('',(69.,6.2,116.));
#400 = VECTOR('',#401,1.);
#401 = DIRECTION('',(-1.110223024625E-16,0.,-1.));
#402 = ORIENTED_EDGE('',*,*,#184,.F.);
#403 = ORIENTED_EDGE('',*,*,#170,.F.);
#404 = PLANE('',#405);
#405 = AXIS2_PLACEMENT_3D('',#406,#407,#408);
#406 = CARTESIAN_POINT('',(69.,6.2,110.));
#407 = DIRECTION('',(-0.,-1.,-0.));
#408 = DIRECTION('',(1.,0.,0.));
#409 = ADVANCED_FACE('',(#410),#427,.T.);
#410 = FACE_BOUND('',#411,.T.);
#411 = EDGE_LOOP('',(#412,#413,#421));
#412 = ORIENTED_EDGE('',*,*,#193,.F.);
#413 = ORIENTED_EDGE('',*,*,#414,.T.);
#414 = EDGE_CURVE('',#185,#415,#417,.T.);
#415 = VERTEX_POINT('',#416);
#416 = CARTESIAN_POINT('',(25.2,50.,113.));
#417 = LINE('',#418,#419);
#418 = CARTESIAN_POINT('',(69.,6.2,113.));
#419 = VECTOR('',#420,1.);
#420 = DIRECTION('',(-0.707106781187,0.707106781187,7.850462293419E-17)
  );
#421 = ORIENTED_EDGE('',*,*,#422,.T.);
#422 = EDGE_CURVE('',#415,#194,#423,.T.);
#423 = LINE('',#424,#425);
#424 = CARTESIAN_POINT('',(25.2,50.,113.));
#425 = VECTOR('',#426,1.);
#426 = DIRECTION('',(1.,0.,-1.110223024625E-16));
#427 = PLANE('',#428);
#428 = AXIS2_PLACEMENT_3D('',#429,#430,#431);
#429 = CARTESIAN_POINT('',(53.514361492015,34.514361492015,113.));
#430 = DIRECTION('',(-1.110223024625E-16,-0.,-1.));
#431 = DIRECTION('',(1.,0.,-1.110223024625E-16));
#432 = ADVANCED_FACE('',(#433),#460,.F.);
#433 = FACE_BOUND('',#434,.T.);
#434 = EDGE_LOOP('',(#435,#445,#452,#453));
#435 = ORIENTED_EDGE('',*,*,#436,.T.);
#436 = EDGE_CURVE('',#437,#439,#441,.T.);
#437 = VERTEX_POINT('',#438);
#438 = CARTESIAN_POINT('',(-72.,6.,0.));
#439 = VERTEX_POINT('',#440);
#440 = CARTESIAN_POINT('',(-72.,6.,110.));
#441 = LINE('',#442,#443);
#442 = CARTESIAN_POINT('',(-72.,6.,0.));
#443 = VECTOR('',#444,1.);
#444 = DIRECTION('',(0.,0.,1.));
#445 = ORIENTED_EDGE('',*,*,#446,.T.);
#446 = EDGE_CURVE('',#439,#220,#447,.T.);
#447 = CIRCLE('',#448,3.);
#448 = AXIS2_PLACEMENT_3D('',#449,#450,#451);
#449 = CARTESIAN_POINT('',(-69.,6.,110.));
#450 = DIRECTION('',(-0.,0.,1.));
#451 = DIRECTION('',(2.22044604925E-16,-1.,0.));
#452 = ORIENTED_EDGE('',*,*,#217,.F.);
#453 = ORIENTED_EDGE('',*,*,#454,.F.);
#454 = EDGE_CURVE('',#437,#218,#455,.T.);
#455 = CIRCLE('',#456,3.);
#456 = AXIS2_PLACEMENT_3D('',#457,#458,#459);
#457 = CARTESIAN_POINT('',(-69.,6.,0.));
#458 = DIRECTION('',(-0.,0.,1.));
#459 = DIRECTION('',(2.22044604925E-16,-1.,0.));
#460 = CYLINDRICAL_SURFACE('',#461,3.);
#461 = AXIS2_PLACEMENT_3D('',#462,#463,#464);
#462 = CARTESIAN_POINT('',(-69.,6.,0.));
#463 = DIRECTION('',(0.,0.,-1.));
#464 = DIRECTION('',(2.22044604925E-16,-1.,0.));
#465 = ADVANCED_FACE('',(#466),#483,.T.);
#466 = FACE_BOUND('',#467,.T.);
#467 = EDGE_LOOP('',(#468,#469,#470,#478));
#468 = ORIENTED_EDGE('',*,*,#250,.T.);
#469 = ORIENTED_EDGE('',*,*,#275,.T.);
#470 = ORIENTED_EDGE('',*,*,#471,.F.);
#471 = EDGE_CURVE('',#472,#267,#474,.T.);
#472 = VERTEX_POINT('',#473);
#473 = CARTESIAN_POINT('',(-69.,0.,0.));
#474 = LINE('',#475,#476);
#475 = CARTESIAN_POINT('',(-75.,0.,0.));
#476 = VECTOR('',#477,1.);
#477 = DIRECTION('',(1.,0.,0.));
#478 = ORIENTED_EDGE('',*,*,#479,.F.);
#479 = EDGE_CURVE('',#218,#472,#480,.T.);
#480 = B_SPLINE_CURVE_WITH_KNOTS('',1,(#481,#482),.UNSPECIFIED.,.F.,.F.,
  (2,2),(0.,1.),.PIECEWISE_BEZIER_KNOTS.);
#481 = CARTESIAN_POINT('',(-69.,3.,0.));
#482 = CARTESIAN_POINT('',(-69.,0.,0.));
#483 = PLANE('',#484);
#484 = AXIS2_PLACEMENT_3D('',#485,#486,#487);
#485 = CARTESIAN_POINT('',(-75.,0.,0.));
#486 = DIRECTION('',(0.,0.,-1.));
#487 = DIRECTION('',(1.,0.,0.));
#488 = ADVANCED_FACE('',(#489),#513,.T.);
#489 = FACE_BOUND('',#490,.T.);
#490 = EDGE_LOOP('',(#491,#492,#499,#507));
#491 = ORIENTED_EDGE('',*,*,#227,.F.);
#492 = ORIENTED_EDGE('',*,*,#493,.T.);
#493 = EDGE_CURVE('',#220,#494,#496,.T.);
#494 = VERTEX_POINT('',#495);
#495 = CARTESIAN_POINT('',(-69.,0.,110.));
#496 = B_SPLINE_CURVE_WITH_KNOTS('',1,(#497,#498),.UNSPECIFIED.,.F.,.F.,
  (2,2),(0.,1.),.PIECEWISE_BEZIER_KNOTS.);
#497 = CARTESIAN_POINT('',(-69.,3.,110.));
#498 = CARTESIAN_POINT('',(-69.,0.,110.));
#499 = ORIENTED_EDGE('',*,*,#500,.T.);
#500 = EDGE_CURVE('',#494,#501,#503,.T.);
#501 = VERTEX_POINT('',#502);
#502 = CARTESIAN_POINT('',(-68.8,0.,110.));
#503 = LINE('',#504,#505);
#504 = CARTESIAN_POINT('',(-75.,0.,110.));
#505 = VECTOR('',#506,1.);
#506 = DIRECTION('',(1.,0.,0.));
#507 = ORIENTED_EDGE('',*,*,#508,.T.);
#508 = EDGE_CURVE('',#501,#228,#509,.T.);
#509 = LINE('',#510,#511);
#510 = CARTESIAN_POINT('',(-68.8,0.,110.));
#511 = VECTOR('',#512,1.);
#512 = DIRECTION('',(0.,1.,0.));
#513 = PLANE('',#514);
#514 = AXIS2_PLACEMENT_3D('',#515,#516,#517);
#515 = CARTESIAN_POINT('',(-75.,0.,110.));
#516 = DIRECTION('',(0.,0.,1.));
#517 = DIRECTION('',(-1.,0.,0.));
#518 = ADVANCED_FACE('',(#519),#546,.F.);
#519 = FACE_BOUND('',#520,.T.);
#520 = EDGE_LOOP('',(#521,#530,#538,#545));
#521 = ORIENTED_EDGE('',*,*,#522,.T.);
#522 = EDGE_CURVE('',#228,#523,#525,.T.);
#523 = VERTEX_POINT('',#524);
#524 = CARTESIAN_POINT('',(-68.8,6.,113.));
#525 = CIRCLE('',#526,3.);
#526 = AXIS2_PLACEMENT_3D('',#527,#528,#529);
#527 = CARTESIAN_POINT('',(-68.8,6.,110.));
#528 = DIRECTION('',(-1.,0.,0.));
#529 = DIRECTION('',(0.,-1.,0.));
#530 = ORIENTED_EDGE('',*,*,#531,.T.);
#531 = EDGE_CURVE('',#523,#532,#534,.T.);
#532 = VERTEX_POINT('',#533);
#533 = CARTESIAN_POINT('',(68.8,6.,113.));
#534 = LINE('',#535,#536);
#535 = CARTESIAN_POINT('',(-68.8,6.,113.));
#536 = VECTOR('',#537,1.);
#537 = DIRECTION('',(1.,0.,0.));
#538 = ORIENTED_EDGE('',*,*,#539,.F.);
#539 = EDGE_CURVE('',#236,#532,#540,.T.);
#540 = CIRCLE('',#541,3.);
#541 = AXIS2_PLACEMENT_3D('',#542,#543,#544);
#542 = CARTESIAN_POINT('',(68.8,6.,110.));
#543 = DIRECTION('',(-1.,0.,0.));
#544 = DIRECTION('',(0.,-1.,0.));
#545 = ORIENTED_EDGE('',*,*,#235,.F.);
#546 = CYLINDRICAL_SURFACE('',#547,3.);
#547 = AXIS2_PLACEMENT_3D('',#548,#549,#550);
#548 = CARTESIAN_POINT('',(-68.8,6.,110.));
#549 = DIRECTION('',(1.,0.,0.));
#550 = DIRECTION('',(0.,-1.,0.));
#551 = ADVANCED_FACE('',(#552),#570,.T.);
#552 = FACE_BOUND('',#553,.T.);
#553 = EDGE_LOOP('',(#554,#555,#563,#569));
#554 = ORIENTED_EDGE('',*,*,#243,.F.);
#555 = ORIENTED_EDGE('',*,*,#556,.T.);
#556 = EDGE_CURVE('',#236,#557,#559,.T.);
#557 = VERTEX_POINT('',#558);
#558 = CARTESIAN_POINT('',(68.8,0.,110.));
#559 = LINE('',#560,#561);
#560 = CARTESIAN_POINT('',(68.8,3.,110.));
#561 = VECTOR('',#562,1.);
#562 = DIRECTION('',(0.,-1.,0.));
#563 = ORIENTED_EDGE('',*,*,#564,.T.);
#564 = EDGE_CURVE('',#557,#304,#565,.T.);
#565 = LINE('',#566,#567);
#566 = CARTESIAN_POINT('',(-75.,0.,110.));
#567 = VECTOR('',#568,1.);
#568 = DIRECTION('',(1.,0.,0.));
#569 = ORIENTED_EDGE('',*,*,#303,.F.);
#570 = PLANE('',#571);
#571 = AXIS2_PLACEMENT_3D('',#572,#573,#574);
#572 = CARTESIAN_POINT('',(-75.,0.,110.));
#573 = DIRECTION('',(0.,0.,1.));
#574 = DIRECTION('',(-1.,0.,0.));
#575 = ADVANCED_FACE('',(#576),#587,.T.);
#576 = FACE_BOUND('',#577,.F.);
#577 = EDGE_LOOP('',(#578,#584,#585,#586));
#578 = ORIENTED_EDGE('',*,*,#579,.T.);
#579 = EDGE_CURVE('',#267,#304,#580,.T.);
#580 = LINE('',#581,#582);
#581 = CARTESIAN_POINT('',(69.,-8.881784197001E-16,0.));
#582 = VECTOR('',#583,1.);
#583 = DIRECTION('',(0.,0.,1.));
#584 = ORIENTED_EDGE('',*,*,#310,.T.);
#585 = ORIENTED_EDGE('',*,*,#365,.F.);
#586 = ORIENTED_EDGE('',*,*,#266,.F.);
#587 = CYLINDRICAL_SURFACE('',#588,6.);
#588 = AXIS2_PLACEMENT_3D('',#589,#590,#591);
#589 = CARTESIAN_POINT('',(69.,6.,0.));
#590 = DIRECTION('',(0.,0.,-1.));
#591 = DIRECTION('',(0.,-1.,0.));
#592 = ADVANCED_FACE('',(#593),#604,.T.);
#593 = FACE_BOUND('',#594,.T.);
#594 = EDGE_LOOP('',(#595,#596,#602,#603));
#595 = ORIENTED_EDGE('',*,*,#349,.T.);
#596 = ORIENTED_EDGE('',*,*,#597,.T.);
#597 = EDGE_CURVE('',#342,#389,#598,.T.);
#598 = LINE('',#599,#600);
#599 = CARTESIAN_POINT('',(69.,50.,116.));
#600 = VECTOR('',#601,1.);
#601 = DIRECTION('',(0.,-1.,0.));
#602 = ORIENTED_EDGE('',*,*,#388,.F.);
#603 = ORIENTED_EDGE('',*,*,#372,.T.);
#604 = CYLINDRICAL_SURFACE('',#605,6.);
#605 = AXIS2_PLACEMENT_3D('',#606,#607,#608);
#606 = CARTESIAN_POINT('',(69.,50.,110.));
#607 = DIRECTION('',(-0.,-1.,-0.));
#608 = DIRECTION('',(1.,0.,0.));
#609 = ADVANCED_FACE('',(#610),#628,.F.);
#610 = FACE_BOUND('',#611,.F.);
#611 = EDGE_LOOP('',(#612,#620,#621,#622));
#612 = ORIENTED_EDGE('',*,*,#613,.T.);
#613 = EDGE_CURVE('',#614,#415,#616,.T.);
#614 = VERTEX_POINT('',#615);
#615 = CARTESIAN_POINT('',(25.2,50.,116.));
#616 = LINE('',#617,#618);
#617 = CARTESIAN_POINT('',(25.2,50.,116.));
#618 = VECTOR('',#619,1.);
#619 = DIRECTION('',(-1.110223024625E-16,0.,-1.));
#620 = ORIENTED_EDGE('',*,*,#422,.T.);
#621 = ORIENTED_EDGE('',*,*,#341,.T.);
#622 = ORIENTED_EDGE('',*,*,#623,.F.);
#623 = EDGE_CURVE('',#614,#342,#624,.T.);
#624 = LINE('',#625,#626);
#625 = CARTESIAN_POINT('',(25.2,50.,116.));
#626 = VECTOR('',#627,1.);
#627 = DIRECTION('',(1.,0.,-1.110223024625E-16));
#628 = PLANE('',#629);
#629 = AXIS2_PLACEMENT_3D('',#630,#631,#632);
#630 = CARTESIAN_POINT('',(25.2,50.,116.));
#631 = DIRECTION('',(0.,-1.,-0.));
#632 = DIRECTION('',(1.,0.,-1.110223024625E-16));
#633 = ADVANCED_FACE('',(#634),#645,.F.);
#634 = FACE_BOUND('',#635,.F.);
#635 = EDGE_LOOP('',(#636,#637,#638,#639));
#636 = ORIENTED_EDGE('',*,*,#397,.T.);
#637 = ORIENTED_EDGE('',*,*,#414,.T.);
#638 = ORIENTED_EDGE('',*,*,#613,.F.);
#639 = ORIENTED_EDGE('',*,*,#640,.F.);
#640 = EDGE_CURVE('',#389,#614,#641,.T.);
#641 = LINE('',#642,#643);
#642 = CARTESIAN_POINT('',(69.,6.2,116.));
#643 = VECTOR('',#644,1.);
#644 = DIRECTION('',(-0.707106781187,0.707106781187,7.850462293419E-17)
  );
#645 = PLANE('',#646);
#646 = AXIS2_PLACEMENT_3D('',#647,#648,#649);
#647 = CARTESIAN_POINT('',(69.,6.2,116.));
#648 = DIRECTION('',(0.707106781187,0.707106781187,-7.850462293419E-17)
  );
#649 = DIRECTION('',(-0.707106781187,0.707106781187,7.850462293419E-17)
  );
#650 = ADVANCED_FACE('',(#651),#684,.T.);
#651 = FACE_BOUND('',#652,.T.);
#652 = EDGE_LOOP('',(#653,#663,#671,#677,#678));
#653 = ORIENTED_EDGE('',*,*,#654,.T.);
#654 = EDGE_CURVE('',#655,#657,#659,.T.);
#655 = VERTEX_POINT('',#656);
#656 = CARTESIAN_POINT('',(-72.,50.,0.));
#657 = VERTEX_POINT('',#658);
#658 = CARTESIAN_POINT('',(-72.,50.,110.));
#659 = LINE('',#660,#661);
#660 = CARTESIAN_POINT('',(-72.,50.,0.));
#661 = VECTOR('',#662,1.);
#662 = DIRECTION('',(0.,0.,1.));
#663 = ORIENTED_EDGE('',*,*,#664,.T.);
#664 = EDGE_CURVE('',#657,#665,#667,.T.);
#665 = VERTEX_POINT('',#666);
#666 = CARTESIAN_POINT('',(-72.,6.2,110.));
#667 = LINE('',#668,#669);
#668 = CARTESIAN_POINT('',(-72.,50.,110.));
#669 = VECTOR('',#670,1.);
#670 = DIRECTION('',(0.,-1.,0.));
#671 = ORIENTED_EDGE('',*,*,#672,.T.);
#672 = EDGE_CURVE('',#665,#439,#673,.T.);
#673 = LINE('',#674,#675);
#674 = CARTESIAN_POINT('',(-72.,50.,110.));
#675 = VECTOR('',#676,1.);
#676 = DIRECTION('',(0.,-1.,0.));
#677 = ORIENTED_EDGE('',*,*,#436,.F.);
#678 = ORIENTED_EDGE('',*,*,#679,.F.);
#679 = EDGE_CURVE('',#655,#437,#680,.T.);
#680 = LINE('',#681,#682);
#681 = CARTESIAN_POINT('',(-72.,50.,0.));
#682 = VECTOR('',#683,1.);
#683 = DIRECTION('',(0.,-1.,0.));
#684 = PLANE('',#685);
#685 = AXIS2_PLACEMENT_3D('',#686,#687,#688);
#686 = CARTESIAN_POINT('',(-72.,50.,0.));
#687 = DIRECTION('',(1.,0.,0.));
#688 = DIRECTION('',(0.,-1.,0.));
#689 = ADVANCED_FACE('',(#690),#708,.T.);
#690 = FACE_BOUND('',#691,.T.);
#691 = EDGE_LOOP('',(#692,#693,#694,#703));
#692 = ORIENTED_EDGE('',*,*,#454,.T.);
#693 = ORIENTED_EDGE('',*,*,#479,.T.);
#694 = ORIENTED_EDGE('',*,*,#695,.F.);
#695 = EDGE_CURVE('',#696,#472,#698,.T.);
#696 = VERTEX_POINT('',#697);
#697 = CARTESIAN_POINT('',(-75.,6.,0.));
#698 = CIRCLE('',#699,6.);
#699 = AXIS2_PLACEMENT_3D('',#700,#701,#702);
#700 = CARTESIAN_POINT('',(-69.,6.,0.));
#701 = DIRECTION('',(-0.,0.,1.));
#702 = DIRECTION('',(2.22044604925E-16,-1.,0.));
#703 = ORIENTED_EDGE('',*,*,#704,.F.);
#704 = EDGE_CURVE('',#437,#696,#705,.T.);
#705 = B_SPLINE_CURVE_WITH_KNOTS('',1,(#706,#707),.UNSPECIFIED.,.F.,.F.,
  (2,2),(0.,1.),.PIECEWISE_BEZIER_KNOTS.);
#706 = CARTESIAN_POINT('',(-72.,6.,0.));
#707 = CARTESIAN_POINT('',(-75.,6.,0.));
#708 = B_SPLINE_SURFACE_WITH_KNOTS('',8,1,(
    (#709,#710)
    ,(#711,#712)
    ,(#713,#714)
    ,(#715,#716)
    ,(#717,#718)
    ,(#719,#720)
    ,(#721,#722)
    ,(#723,#724)
    ,(#725,#726
    )),.UNSPECIFIED.,.F.,.F.,.F.,(9,9),(2,2),(4.712388980385,
    6.28318530718),(0.,1.),.PIECEWISE_BEZIER_KNOTS.);
#709 = CARTESIAN_POINT('',(-72.,6.,0.));
#710 = CARTESIAN_POINT('',(-75.,6.,0.));
#711 = CARTESIAN_POINT('',(-71.99999999999,5.410951377452,0.));
#712 = CARTESIAN_POINT('',(-74.99999999999,4.821902754904,0.));
#713 = CARTESIAN_POINT('',(-71.86781763312,4.821902569488,0.));
#714 = CARTESIAN_POINT('',(-74.73563526623,3.643805138975,0.));
#715 = CARTESIAN_POINT('',(-71.6034541976,4.267460296994,0.));
#716 = CARTESIAN_POINT('',(-74.20690839522,2.534920593989,0.));
#717 = CARTESIAN_POINT('',(-71.21777626734,3.782223732661,0.));
#718 = CARTESIAN_POINT('',(-73.43555253468,1.564447465321,0.));
#719 = CARTESIAN_POINT('',(-70.732539703,3.396545802385,0.));
#720 = CARTESIAN_POINT('',(-72.465079406,0.793091604771,0.));
#721 = CARTESIAN_POINT('',(-70.17809743051,3.132182366884,0.));
#722 = CARTESIAN_POINT('',(-71.35619486102,0.264364733767,0.));
#723 = CARTESIAN_POINT('',(-69.58904862254,3.,0.));
#724 = CARTESIAN_POINT('',(-70.17809724509,-1.643130076445E-14,0.));
#725 = CARTESIAN_POINT('',(-69.,3.,0.));
#726 = CARTESIAN_POINT('',(-69.,0.,0.));
#727 = ADVANCED_FACE('',(#728),#746,.T.);
#728 = FACE_BOUND('',#729,.T.);
#729 = EDGE_LOOP('',(#730,#731,#738,#745));
#730 = ORIENTED_EDGE('',*,*,#446,.F.);
#731 = ORIENTED_EDGE('',*,*,#732,.T.);
#732 = EDGE_CURVE('',#439,#733,#735,.T.);
#733 = VERTEX_POINT('',#734);
#734 = CARTESIAN_POINT('',(-75.,6.,110.));
#735 = B_SPLINE_CURVE_WITH_KNOTS('',1,(#736,#737),.UNSPECIFIED.,.F.,.F.,
  (2,2),(0.,1.),.PIECEWISE_BEZIER_KNOTS.);
#736 = CARTESIAN_POINT('',(-72.,6.,110.));
#737 = CARTESIAN_POINT('',(-75.,6.,110.));
#738 = ORIENTED_EDGE('',*,*,#739,.T.);
#739 = EDGE_CURVE('',#733,#494,#740,.T.);
#740 = CIRCLE('',#741,6.);
#741 = AXIS2_PLACEMENT_3D('',#742,#743,#744);
#742 = CARTESIAN_POINT('',(-69.,6.,110.));
#743 = DIRECTION('',(-0.,0.,1.));
#744 = DIRECTION('',(2.22044604925E-16,-1.,0.));
#745 = ORIENTED_EDGE('',*,*,#493,.F.);
#746 = B_SPLINE_SURFACE_WITH_KNOTS('',8,1,(
    (#747,#748)
    ,(#749,#750)
    ,(#751,#752)
    ,(#753,#754)
    ,(#755,#756)
    ,(#757,#758)
    ,(#759,#760)
    ,(#761,#762)
    ,(#763,#764
    )),.UNSPECIFIED.,.F.,.F.,.F.,(9,9),(2,2),(0.,1.570796326795),(0.,1.)
  ,.PIECEWISE_BEZIER_KNOTS.);
#747 = CARTESIAN_POINT('',(-69.,3.,110.));
#748 = CARTESIAN_POINT('',(-69.,4.440892098501E-16,110.));
#749 = CARTESIAN_POINT('',(-69.58904862254,3.,110.));
#750 = CARTESIAN_POINT('',(-70.17809724509,4.558831935817E-15,110.));
#751 = CARTESIAN_POINT('',(-70.17809743051,3.132182366884,110.));
#752 = CARTESIAN_POINT('',(-71.35619486102,0.264364733767,110.));
#753 = CARTESIAN_POINT('',(-70.732539703,3.396545802386,110.));
#754 = CARTESIAN_POINT('',(-72.46507940601,0.793091604771,110.));
#755 = CARTESIAN_POINT('',(-71.21777626734,3.78222373266,110.));
#756 = CARTESIAN_POINT('',(-73.43555253467,1.564447465321,110.));
#757 = CARTESIAN_POINT('',(-71.60345419761,4.267460296995,
    109.99999999999));
#758 = CARTESIAN_POINT('',(-74.20690839523,2.53492059399,109.99999999999
    ));
#759 = CARTESIAN_POINT('',(-71.86781763311,4.821902569487,110.));
#760 = CARTESIAN_POINT('',(-74.73563526623,3.643805138975,110.));
#761 = CARTESIAN_POINT('',(-72.,5.410951377452,110.));
#762 = CARTESIAN_POINT('',(-75.,4.821902754904,110.));
#763 = CARTESIAN_POINT('',(-72.,6.,110.));
#764 = CARTESIAN_POINT('',(-75.,6.,110.));
#765 = ADVANCED_FACE('',(#766),#784,.F.);
#766 = FACE_BOUND('',#767,.F.);
#767 = EDGE_LOOP('',(#768,#774,#775,#781,#782,#783));
#768 = ORIENTED_EDGE('',*,*,#769,.T.);
#769 = EDGE_CURVE('',#472,#494,#770,.T.);
#770 = LINE('',#771,#772);
#771 = CARTESIAN_POINT('',(-69.,0.,0.));
#772 = VECTOR('',#773,1.);
#773 = DIRECTION('',(0.,0.,1.));
#774 = ORIENTED_EDGE('',*,*,#500,.T.);
#775 = ORIENTED_EDGE('',*,*,#776,.T.);
#776 = EDGE_CURVE('',#501,#557,#777,.T.);
#777 = LINE('',#778,#779);
#778 = CARTESIAN_POINT('',(-75.,0.,110.));
#779 = VECTOR('',#780,1.);
#780 = DIRECTION('',(1.,0.,0.));
#781 = ORIENTED_EDGE('',*,*,#564,.T.);
#782 = ORIENTED_EDGE('',*,*,#579,.F.);
#783 = ORIENTED_EDGE('',*,*,#471,.F.);
#784 = PLANE('',#785);
#785 = AXIS2_PLACEMENT_3D('',#786,#787,#788);
#786 = CARTESIAN_POINT('',(-69.,0.,0.));
#787 = DIRECTION('',(0.,1.,0.));
#788 = DIRECTION('',(1.,0.,0.));
#789 = ADVANCED_FACE('',(#790),#809,.T.);
#790 = FACE_BOUND('',#791,.T.);
#791 = EDGE_LOOP('',(#792,#801,#807,#808));
#792 = ORIENTED_EDGE('',*,*,#793,.T.);
#793 = EDGE_CURVE('',#501,#794,#796,.T.);
#794 = VERTEX_POINT('',#795);
#795 = CARTESIAN_POINT('',(-68.8,6.,116.));
#796 = CIRCLE('',#797,6.);
#797 = AXIS2_PLACEMENT_3D('',#798,#799,#800);
#798 = CARTESIAN_POINT('',(-68.8,6.,110.));
#799 = DIRECTION('',(-1.,0.,0.));
#800 = DIRECTION('',(0.,-1.,0.));
#801 = ORIENTED_EDGE('',*,*,#802,.T.);
#802 = EDGE_CURVE('',#794,#523,#803,.T.);
#803 = LINE('',#804,#805);
#804 = CARTESIAN_POINT('',(-68.8,6.,116.));
#805 = VECTOR('',#806,1.);
#806 = DIRECTION('',(0.,1.110223024625E-16,-1.));
#807 = ORIENTED_EDGE('',*,*,#522,.F.);
#808 = ORIENTED_EDGE('',*,*,#508,.F.);
#809 = PLANE('',#810);
#810 = AXIS2_PLACEMENT_3D('',#811,#812,#813);
#811 = CARTESIAN_POINT('',(-68.8,6.,110.));
#812 = DIRECTION('',(-1.,-0.,-0.));
#813 = DIRECTION('',(0.,-1.,0.));
#814 = ADVANCED_FACE('',(#815),#834,.F.);
#815 = FACE_BOUND('',#816,.T.);
#816 = EDGE_LOOP('',(#817,#818,#826,#833));
#817 = ORIENTED_EDGE('',*,*,#539,.T.);
#818 = ORIENTED_EDGE('',*,*,#819,.T.);
#819 = EDGE_CURVE('',#532,#820,#822,.T.);
#820 = VERTEX_POINT('',#821);
#821 = CARTESIAN_POINT('',(68.8,6.,116.));
#822 = LINE('',#823,#824);
#823 = CARTESIAN_POINT('',(68.8,6.,113.));
#824 = VECTOR('',#825,1.);
#825 = DIRECTION('',(0.,-1.110223024625E-16,1.));
#826 = ORIENTED_EDGE('',*,*,#827,.F.);
#827 = EDGE_CURVE('',#557,#820,#828,.T.);
#828 = CIRCLE('',#829,6.);
#829 = AXIS2_PLACEMENT_3D('',#830,#831,#832);
#830 = CARTESIAN_POINT('',(68.8,6.,110.));
#831 = DIRECTION('',(-1.,0.,0.));
#832 = DIRECTION('',(0.,-1.,0.));
#833 = ORIENTED_EDGE('',*,*,#556,.F.);
#834 = PLANE('',#835);
#835 = AXIS2_PLACEMENT_3D('',#836,#837,#838);
#836 = CARTESIAN_POINT('',(68.8,6.,110.));
#837 = DIRECTION('',(-1.,-0.,-0.));
#838 = DIRECTION('',(0.,-1.,0.));
#839 = ADVANCED_FACE('',(#840,#857,#868),#879,.T.);
#840 = FACE_BOUND('',#841,.T.);
#841 = EDGE_LOOP('',(#842,#843,#851));
#842 = ORIENTED_EDGE('',*,*,#531,.F.);
#843 = ORIENTED_EDGE('',*,*,#844,.T.);
#844 = EDGE_CURVE('',#523,#845,#847,.T.);
#845 = VERTEX_POINT('',#846);
#846 = CARTESIAN_POINT('',(3.552713678801E-15,74.8,113.));
#847 = LINE('',#848,#849);
#848 = CARTESIAN_POINT('',(-68.8,6.,113.));
#849 = VECTOR('',#850,1.);
#850 = DIRECTION('',(0.707106781187,0.707106781187,7.850462293419E-17));
#851 = ORIENTED_EDGE('',*,*,#852,.T.);
#852 = EDGE_CURVE('',#845,#532,#853,.T.);
#853 = LINE('',#854,#855);
#854 = CARTESIAN_POINT('',(3.552713678801E-15,74.8,113.));
#855 = VECTOR('',#856,1.);
#856 = DIRECTION('',(0.707106781187,-0.707106781187,-7.850462293419E-17)
  );
#857 = FACE_BOUND('',#858,.T.);
#858 = EDGE_LOOP('',(#859));
#859 = ORIENTED_EDGE('',*,*,#860,.T.);
#860 = EDGE_CURVE('',#861,#861,#863,.T.);
#861 = VERTEX_POINT('',#862);
#862 = CARTESIAN_POINT('',(-20.75,25.,113.));
#863 = CIRCLE('',#864,4.25);
#864 = AXIS2_PLACEMENT_3D('',#865,#866,#867);
#865 = CARTESIAN_POINT('',(-25.,25.,113.));
#866 = DIRECTION('',(0.,0.,1.));
#867 = DIRECTION('',(1.,0.,0.));
#868 = FACE_BOUND('',#869,.T.);
#869 = EDGE_LOOP('',(#870));
#870 = ORIENTED_EDGE('',*,*,#871,.T.);
#871 = EDGE_CURVE('',#872,#872,#874,.T.);
#872 = VERTEX_POINT('',#873);
#873 = CARTESIAN_POINT('',(29.25,25.,113.));
#874 = CIRCLE('',#875,4.25);
#875 = AXIS2_PLACEMENT_3D('',#876,#877,#878);
#876 = CARTESIAN_POINT('',(25.,25.,113.));
#877 = DIRECTION('',(0.,0.,1.));
#878 = DIRECTION('',(1.,0.,0.));
#879 = PLANE('',#880);
#880 = AXIS2_PLACEMENT_3D('',#881,#882,#883);
#881 = CARTESIAN_POINT('',(4.106740992523E-15,26.151053454365,113.));
#882 = DIRECTION('',(0.,1.110223024625E-16,-1.));
#883 = DIRECTION('',(0.,1.,1.110223024625E-16));
#884 = ADVANCED_FACE('',(#885),#890,.F.);
#885 = FACE_BOUND('',#886,.F.);
#886 = EDGE_LOOP('',(#887,#888,#889));
#887 = ORIENTED_EDGE('',*,*,#597,.T.);
#888 = ORIENTED_EDGE('',*,*,#640,.T.);
#889 = ORIENTED_EDGE('',*,*,#623,.T.);
#890 = PLANE('',#891);
#891 = AXIS2_PLACEMENT_3D('',#892,#893,#894);
#892 = CARTESIAN_POINT('',(53.514361492015,34.514361492015,116.));
#893 = DIRECTION('',(-1.110223024625E-16,-0.,-1.));
#894 = DIRECTION('',(1.,0.,-1.110223024625E-16));
#895 = ADVANCED_FACE('',(#896),#919,.T.);
#896 = FACE_BOUND('',#897,.T.);
#897 = EDGE_LOOP('',(#898,#899,#906,#914));
#898 = ORIENTED_EDGE('',*,*,#654,.F.);
#899 = ORIENTED_EDGE('',*,*,#900,.T.);
#900 = EDGE_CURVE('',#655,#901,#903,.T.);
#901 = VERTEX_POINT('',#902);
#902 = CARTESIAN_POINT('',(-75.,50.,0.));
#903 = B_SPLINE_CURVE_WITH_KNOTS('',1,(#904,#905),.UNSPECIFIED.,.F.,.F.,
  (2,2),(0.,1.),.PIECEWISE_BEZIER_KNOTS.);
#904 = CARTESIAN_POINT('',(-72.,50.,0.));
#905 = CARTESIAN_POINT('',(-75.,50.,0.));
#906 = ORIENTED_EDGE('',*,*,#907,.T.);
#907 = EDGE_CURVE('',#901,#908,#910,.T.);
#908 = VERTEX_POINT('',#909);
#909 = CARTESIAN_POINT('',(-75.,50.,110.));
#910 = LINE('',#911,#912);
#911 = CARTESIAN_POINT('',(-75.,50.,0.));
#912 = VECTOR('',#913,1.);
#913 = DIRECTION('',(0.,0.,1.));
#914 = ORIENTED_EDGE('',*,*,#915,.F.);
#915 = EDGE_CURVE('',#657,#908,#916,.T.);
#916 = B_SPLINE_CURVE_WITH_KNOTS('',1,(#917,#918),.UNSPECIFIED.,.F.,.F.,
  (2,2),(0.,1.),.PIECEWISE_BEZIER_KNOTS.);
#917 = CARTESIAN_POINT('',(-72.,50.,110.));
#918 = CARTESIAN_POINT('',(-75.,50.,110.));
#919 = PLANE('',#920);
#920 = AXIS2_PLACEMENT_3D('',#921,#922,#923);
#921 = CARTESIAN_POINT('',(-75.,50.,0.));
#922 = DIRECTION('',(0.,1.,0.));
#923 = DIRECTION('',(0.,0.,-1.));
#924 = ADVANCED_FACE('',(#925),#936,.T.);
#925 = FACE_BOUND('',#926,.T.);
#926 = EDGE_LOOP('',(#927,#928,#929,#935));
#927 = ORIENTED_EDGE('',*,*,#679,.T.);
#928 = ORIENTED_EDGE('',*,*,#704,.T.);
#929 = ORIENTED_EDGE('',*,*,#930,.F.);
#930 = EDGE_CURVE('',#901,#696,#931,.T.);
#931 = LINE('',#932,#933);
#932 = CARTESIAN_POINT('',(-75.,50.,0.));
#933 = VECTOR('',#934,1.);
#934 = DIRECTION('',(0.,-1.,0.));
#935 = ORIENTED_EDGE('',*,*,#900,.F.);
#936 = PLANE('',#937);
#937 = AXIS2_PLACEMENT_3D('',#938,#939,#940);
#938 = CARTESIAN_POINT('',(-75.,50.,0.));
#939 = DIRECTION('',(-0.,-0.,-1.));
#940 = DIRECTION('',(0.,-1.,0.));
#941 = ADVANCED_FACE('',(#942),#969,.F.);
#942 = FACE_BOUND('',#943,.T.);
#943 = EDGE_LOOP('',(#944,#953,#961,#968));
#944 = ORIENTED_EDGE('',*,*,#945,.T.);
#945 = EDGE_CURVE('',#657,#946,#948,.T.);
#946 = VERTEX_POINT('',#947);
#947 = CARTESIAN_POINT('',(-69.,50.,113.));
#948 = CIRCLE('',#949,3.);
#949 = AXIS2_PLACEMENT_3D('',#950,#951,#952);
#950 = CARTESIAN_POINT('',(-69.,50.,110.));
#951 = DIRECTION('',(0.,1.,-0.));
#952 = DIRECTION('',(-1.,0.,0.));
#953 = ORIENTED_EDGE('',*,*,#954,.T.);
#954 = EDGE_CURVE('',#946,#955,#957,.T.);
#955 = VERTEX_POINT('',#956);
#956 = CARTESIAN_POINT('',(-69.,6.2,113.));
#957 = LINE('',#958,#959);
#958 = CARTESIAN_POINT('',(-69.,50.,113.));
#959 = VECTOR('',#960,1.);
#960 = DIRECTION('',(0.,-1.,0.));
#961 = ORIENTED_EDGE('',*,*,#962,.F.);
#962 = EDGE_CURVE('',#665,#955,#963,.T.);
#963 = CIRCLE('',#964,3.);
#964 = AXIS2_PLACEMENT_3D('',#965,#966,#967);
#965 = CARTESIAN_POINT('',(-69.,6.2,110.));
#966 = DIRECTION('',(0.,1.,-0.));
#967 = DIRECTION('',(-1.,0.,0.));
#968 = ORIENTED_EDGE('',*,*,#664,.F.);
#969 = CYLINDRICAL_SURFACE('',#970,3.);
#970 = AXIS2_PLACEMENT_3D('',#971,#972,#973);
#971 = CARTESIAN_POINT('',(-69.,50.,110.));
#972 = DIRECTION('',(0.,-1.,0.));
#973 = DIRECTION('',(-1.,0.,0.));
#974 = ADVANCED_FACE('',(#975),#993,.T.);
#975 = FACE_BOUND('',#976,.T.);
#976 = EDGE_LOOP('',(#977,#978,#986,#992));
#977 = ORIENTED_EDGE('',*,*,#672,.F.);
#978 = ORIENTED_EDGE('',*,*,#979,.T.);
#979 = EDGE_CURVE('',#665,#980,#982,.T.);
#980 = VERTEX_POINT('',#981);
#981 = CARTESIAN_POINT('',(-75.,6.2,110.));
#982 = LINE('',#983,#984);
#983 = CARTESIAN_POINT('',(-72.,6.2,110.));
#984 = VECTOR('',#985,1.);
#985 = DIRECTION('',(-1.,0.,0.));
#986 = ORIENTED_EDGE('',*,*,#987,.T.);
#987 = EDGE_CURVE('',#980,#733,#988,.T.);
#988 = LINE('',#989,#990);
#989 = CARTESIAN_POINT('',(-75.,50.,110.));
#990 = VECTOR('',#991,1.);
#991 = DIRECTION('',(0.,-1.,0.));
#992 = ORIENTED_EDGE('',*,*,#732,.F.);
#993 = PLANE('',#994);
#994 = AXIS2_PLACEMENT_3D('',#995,#996,#997);
#995 = CARTESIAN_POINT('',(-75.,50.,110.));
#996 = DIRECTION('',(0.,0.,1.));
#997 = DIRECTION('',(0.,1.,0.));
#998 = ADVANCED_FACE('',(#999),#1010,.T.);
#999 = FACE_BOUND('',#1000,.F.);
#1000 = EDGE_LOOP('',(#1001,#1007,#1008,#1009));
#1001 = ORIENTED_EDGE('',*,*,#1002,.T.);
#1002 = EDGE_CURVE('',#696,#733,#1003,.T.);
#1003 = LINE('',#1004,#1005);
#1004 = CARTESIAN_POINT('',(-75.,6.,0.));
#1005 = VECTOR('',#1006,1.);
#1006 = DIRECTION('',(0.,0.,1.));
#1007 = ORIENTED_EDGE('',*,*,#739,.T.);
#1008 = ORIENTED_EDGE('',*,*,#769,.F.);
#1009 = ORIENTED_EDGE('',*,*,#695,.F.);
#1010 = CYLINDRICAL_SURFACE('',#1011,6.);
#1011 = AXIS2_PLACEMENT_3D('',#1012,#1013,#1014);
#1012 = CARTESIAN_POINT('',(-69.,6.,0.));
#1013 = DIRECTION('',(0.,0.,-1.));
#1014 = DIRECTION('',(2.22044604925E-16,-1.,0.));
#1015 = ADVANCED_FACE('',(#1016),#1027,.T.);
#1016 = FACE_BOUND('',#1017,.T.);
#1017 = EDGE_LOOP('',(#1018,#1019,#1025,#1026));
#1018 = ORIENTED_EDGE('',*,*,#827,.T.);
#1019 = ORIENTED_EDGE('',*,*,#1020,.T.);
#1020 = EDGE_CURVE('',#820,#794,#1021,.T.);
#1021 = LINE('',#1022,#1023);
#1022 = CARTESIAN_POINT('',(68.8,6.,116.));
#1023 = VECTOR('',#1024,1.);
#1024 = DIRECTION('',(-1.,0.,0.));
#1025 = ORIENTED_EDGE('',*,*,#793,.F.);
#1026 = ORIENTED_EDGE('',*,*,#776,.T.);
#1027 = CYLINDRICAL_SURFACE('',#1028,6.);
#1028 = AXIS2_PLACEMENT_3D('',#1029,#1030,#1031);
#1029 = CARTESIAN_POINT('',(68.8,6.,110.));
#1030 = DIRECTION('',(-1.,-0.,-0.));
#1031 = DIRECTION('',(0.,-1.,0.));
#1032 = ADVANCED_FACE('',(#1033),#1051,.F.);
#1033 = FACE_BOUND('',#1034,.F.);
#1034 = EDGE_LOOP('',(#1035,#1036,#1037,#1045));
#1035 = ORIENTED_EDGE('',*,*,#802,.T.);
#1036 = ORIENTED_EDGE('',*,*,#844,.T.);
#1037 = ORIENTED_EDGE('',*,*,#1038,.F.);
#1038 = EDGE_CURVE('',#1039,#845,#1041,.T.);
#1039 = VERTEX_POINT('',#1040);
#1040 = CARTESIAN_POINT('',(3.552713678801E-15,74.8,116.));
#1041 = LINE('',#1042,#1043);
#1042 = CARTESIAN_POINT('',(3.552713678801E-15,74.8,116.));
#1043 = VECTOR('',#1044,1.);
#1044 = DIRECTION('',(0.,1.110223024625E-16,-1.));
#1045 = ORIENTED_EDGE('',*,*,#1046,.F.);
#1046 = EDGE_CURVE('',#794,#1039,#1047,.T.);
#1047 = LINE('',#1048,#1049);
#1048 = CARTESIAN_POINT('',(-68.8,6.,116.));
#1049 = VECTOR('',#1050,1.);
#1050 = DIRECTION('',(0.707106781187,0.707106781187,7.850462293419E-17)
  );
#1051 = PLANE('',#1052);
#1052 = AXIS2_PLACEMENT_3D('',#1053,#1054,#1055);
#1053 = CARTESIAN_POINT('',(-68.8,6.,116.));
#1054 = DIRECTION('',(0.707106781187,-0.707106781187,-7.850462293419E-17
    ));
#1055 = DIRECTION('',(0.707106781187,0.707106781187,7.850462293419E-17)
  );
#1056 = ADVANCED_FACE('',(#1057),#1068,.F.);
#1057 = FACE_BOUND('',#1058,.F.);
#1058 = EDGE_LOOP('',(#1059,#1060,#1061,#1062));
#1059 = ORIENTED_EDGE('',*,*,#1038,.T.);
#1060 = ORIENTED_EDGE('',*,*,#852,.T.);
#1061 = ORIENTED_EDGE('',*,*,#819,.T.);
#1062 = ORIENTED_EDGE('',*,*,#1063,.F.);
#1063 = EDGE_CURVE('',#1039,#820,#1064,.T.);
#1064 = LINE('',#1065,#1066);
#1065 = CARTESIAN_POINT('',(3.552713678801E-15,74.8,116.));
#1066 = VECTOR('',#1067,1.);
#1067 = DIRECTION('',(0.707106781187,-0.707106781187,-7.850462293419E-17
    ));
#1068 = PLANE('',#1069);
#1069 = AXIS2_PLACEMENT_3D('',#1070,#1071,#1072);
#1070 = CARTESIAN_POINT('',(3.552713678801E-15,74.8,116.));
#1071 = DIRECTION('',(-0.707106781187,-0.707106781187,
    -7.850462293419E-17));
#1072 = DIRECTION('',(0.707106781187,-0.707106781187,-7.850462293419E-17
    ));
#1073 = ADVANCED_FACE('',(#1074),#1093,.F.);
#1074 = FACE_BOUND('',#1075,.F.);
#1075 = EDGE_LOOP('',(#1076,#1085,#1091,#1092));
#1076 = ORIENTED_EDGE('',*,*,#1077,.F.);
#1077 = EDGE_CURVE('',#1078,#1078,#1080,.T.);
#1078 = VERTEX_POINT('',#1079);
#1079 = CARTESIAN_POINT('',(-20.75,25.,116.));
#1080 = CIRCLE('',#1081,4.25);
#1081 = AXIS2_PLACEMENT_3D('',#1082,#1083,#1084);
#1082 = CARTESIAN_POINT('',(-25.,25.,116.));
#1083 = DIRECTION('',(0.,0.,1.));
#1084 = DIRECTION('',(1.,0.,0.));
#1085 = ORIENTED_EDGE('',*,*,#1086,.F.);
#1086 = EDGE_CURVE('',#861,#1078,#1087,.T.);
#1087 = LINE('',#1088,#1089);
#1088 = CARTESIAN_POINT('',(-20.75,25.,110.));
#1089 = VECTOR('',#1090,1.);
#1090 = DIRECTION('',(0.,0.,1.));
#1091 = ORIENTED_EDGE('',*,*,#860,.T.);
#1092 = ORIENTED_EDGE('',*,*,#1086,.T.);
#1093 = CYLINDRICAL_SURFACE('',#1094,4.25);
#1094 = AXIS2_PLACEMENT_3D('',#1095,#1096,#1097);
#1095 = CARTESIAN_POINT('',(-25.,25.,110.));
#1096 = DIRECTION('',(0.,0.,1.));
#1097 = DIRECTION('',(1.,0.,0.));
#1098 = ADVANCED_FACE('',(#1099),#1118,.F.);
#1099 = FACE_BOUND('',#1100,.F.);
#1100 = EDGE_LOOP('',(#1101,#1110,#1116,#1117));
#1101 = ORIENTED_EDGE('',*,*,#1102,.F.);
#1102 = EDGE_CURVE('',#1103,#1103,#1105,.T.);
#1103 = VERTEX_POINT('',#1104);
#1104 = CARTESIAN_POINT('',(29.25,25.,116.));
#1105 = CIRCLE('',#1106,4.25);
#1106 = AXIS2_PLACEMENT_3D('',#1107,#1108,#1109);
#1107 = CARTESIAN_POINT('',(25.,25.,116.));
#1108 = DIRECTION('',(0.,0.,1.));
#1109 = DIRECTION('',(1.,0.,0.));
#1110 = ORIENTED_EDGE('',*,*,#1111,.F.);
#1111 = EDGE_CURVE('',#872,#1103,#1112,.T.);
#1112 = LINE('',#1113,#1114);
#1113 = CARTESIAN_POINT('',(29.25,25.,110.));
#1114 = VECTOR('',#1115,1.);
#1115 = DIRECTION('',(0.,0.,1.));
#1116 = ORIENTED_EDGE('',*,*,#871,.T.);
#1117 = ORIENTED_EDGE('',*,*,#1111,.T.);
#1118 = CYLINDRICAL_SURFACE('',#1119,4.25);
#1119 = AXIS2_PLACEMENT_3D('',#1120,#1121,#1122);
#1120 = CARTESIAN_POINT('',(25.,25.,110.));
#1121 = DIRECTION('',(0.,0.,1.));
#1122 = DIRECTION('',(1.,0.,0.));
#1123 = ADVANCED_FACE('',(#1124),#1136,.F.);
#1124 = FACE_BOUND('',#1125,.F.);
#1125 = EDGE_LOOP('',(#1126,#1127,#1133,#1134,#1135));
#1126 = ORIENTED_EDGE('',*,*,#907,.T.);
#1127 = ORIENTED_EDGE('',*,*,#1128,.T.);
#1128 = EDGE_CURVE('',#908,#980,#1129,.T.);
#1129 = LINE('',#1130,#1131);
#1130 = CARTESIAN_POINT('',(-75.,50.,110.));
#1131 = VECTOR('',#1132,1.);
#1132 = DIRECTION('',(0.,-1.,0.));
#1133 = ORIENTED_EDGE('',*,*,#987,.T.);
#1134 = ORIENTED_EDGE('',*,*,#1002,.F.);
#1135 = ORIENTED_EDGE('',*,*,#930,.F.);
#1136 = PLANE('',#1137);
#1137 = AXIS2_PLACEMENT_3D('',#1138,#1139,#1140);
#1138 = CARTESIAN_POINT('',(-75.,50.,0.));
#1139 = DIRECTION('',(1.,0.,0.));
#1140 = DIRECTION('',(0.,-1.,0.));
#1141 = ADVANCED_FACE('',(#1142),#1161,.T.);
#1142 = FACE_BOUND('',#1143,.T.);
#1143 = EDGE_LOOP('',(#1144,#1153,#1159,#1160));
#1144 = ORIENTED_EDGE('',*,*,#1145,.T.);
#1145 = EDGE_CURVE('',#908,#1146,#1148,.T.);
#1146 = VERTEX_POINT('',#1147);
#1147 = CARTESIAN_POINT('',(-69.,50.,116.));
#1148 = CIRCLE('',#1149,6.);
#1149 = AXIS2_PLACEMENT_3D('',#1150,#1151,#1152);
#1150 = CARTESIAN_POINT('',(-69.,50.,110.));
#1151 = DIRECTION('',(0.,1.,-0.));
#1152 = DIRECTION('',(-1.,0.,0.));
#1153 = ORIENTED_EDGE('',*,*,#1154,.T.);
#1154 = EDGE_CURVE('',#1146,#946,#1155,.T.);
#1155 = LINE('',#1156,#1157);
#1156 = CARTESIAN_POINT('',(-69.,50.,116.));
#1157 = VECTOR('',#1158,1.);
#1158 = DIRECTION('',(1.110223024625E-16,0.,-1.));
#1159 = ORIENTED_EDGE('',*,*,#945,.F.);
#1160 = ORIENTED_EDGE('',*,*,#915,.T.);
#1161 = PLANE('',#1162);
#1162 = AXIS2_PLACEMENT_3D('',#1163,#1164,#1165);
#1163 = CARTESIAN_POINT('',(-69.,50.,110.));
#1164 = DIRECTION('',(0.,1.,0.));
#1165 = DIRECTION('',(-1.,0.,0.));
#1166 = ADVANCED_FACE('',(#1167),#1186,.F.);
#1167 = FACE_BOUND('',#1168,.T.);
#1168 = EDGE_LOOP('',(#1169,#1170,#1178,#1185));
#1169 = ORIENTED_EDGE('',*,*,#962,.T.);
#1170 = ORIENTED_EDGE('',*,*,#1171,.T.);
#1171 = EDGE_CURVE('',#955,#1172,#1174,.T.);
#1172 = VERTEX_POINT('',#1173);
#1173 = CARTESIAN_POINT('',(-69.,6.2,116.));
#1174 = LINE('',#1175,#1176);
#1175 = CARTESIAN_POINT('',(-69.,6.2,113.));
#1176 = VECTOR('',#1177,1.);
#1177 = DIRECTION('',(-1.110223024625E-16,0.,1.));
#1178 = ORIENTED_EDGE('',*,*,#1179,.F.);
#1179 = EDGE_CURVE('',#980,#1172,#1180,.T.);
#1180 = CIRCLE('',#1181,6.);
#1181 = AXIS2_PLACEMENT_3D('',#1182,#1183,#1184);
#1182 = CARTESIAN_POINT('',(-69.,6.2,110.));
#1183 = DIRECTION('',(0.,1.,-0.));
#1184 = DIRECTION('',(-1.,0.,0.));
#1185 = ORIENTED_EDGE('',*,*,#979,.F.);
#1186 = PLANE('',#1187);
#1187 = AXIS2_PLACEMENT_3D('',#1188,#1189,#1190);
#1188 = CARTESIAN_POINT('',(-69.,6.2,110.));
#1189 = DIRECTION('',(0.,1.,0.));
#1190 = DIRECTION('',(-1.,0.,0.));
#1191 = ADVANCED_FACE('',(#1192),#1209,.T.);
#1192 = FACE_BOUND('',#1193,.T.);
#1193 = EDGE_LOOP('',(#1194,#1195,#1203));
#1194 = ORIENTED_EDGE('',*,*,#954,.F.);
#1195 = ORIENTED_EDGE('',*,*,#1196,.T.);
#1196 = EDGE_CURVE('',#946,#1197,#1199,.T.);
#1197 = VERTEX_POINT('',#1198);
#1198 = CARTESIAN_POINT('',(-25.2,50.,113.));
#1199 = LINE('',#1200,#1201);
#1200 = CARTESIAN_POINT('',(-69.,50.,113.));
#1201 = VECTOR('',#1202,1.);
#1202 = DIRECTION('',(1.,0.,1.110223024625E-16));
#1203 = ORIENTED_EDGE('',*,*,#1204,.T.);
#1204 = EDGE_CURVE('',#1197,#955,#1205,.T.);
#1205 = LINE('',#1206,#1207);
#1206 = CARTESIAN_POINT('',(-25.2,50.,113.));
#1207 = VECTOR('',#1208,1.);
#1208 = DIRECTION('',(-0.707106781187,-0.707106781187,
    -7.850462293419E-17));
#1209 = PLANE('',#1210);
#1210 = AXIS2_PLACEMENT_3D('',#1211,#1212,#1213);
#1211 = CARTESIAN_POINT('',(-53.51436149201,34.514361492015,113.));
#1212 = DIRECTION('',(1.110223024625E-16,0.,-1.));
#1213 = DIRECTION('',(1.,0.,1.110223024625E-16));
#1214 = ADVANCED_FACE('',(#1215,#1220,#1223),#1226,.F.);
#1215 = FACE_BOUND('',#1216,.F.);
#1216 = EDGE_LOOP('',(#1217,#1218,#1219));
#1217 = ORIENTED_EDGE('',*,*,#1020,.T.);
#1218 = ORIENTED_EDGE('',*,*,#1046,.T.);
#1219 = ORIENTED_EDGE('',*,*,#1063,.T.);
#1220 = FACE_BOUND('',#1221,.F.);
#1221 = EDGE_LOOP('',(#1222));
#1222 = ORIENTED_EDGE('',*,*,#1077,.T.);
#1223 = FACE_BOUND('',#1224,.F.);
#1224 = EDGE_LOOP('',(#1225));
#1225 = ORIENTED_EDGE('',*,*,#1102,.T.);
#1226 = PLANE('',#1227);
#1227 = AXIS2_PLACEMENT_3D('',#1228,#1229,#1230);
#1228 = CARTESIAN_POINT('',(4.106740992523E-15,26.151053454365,116.));
#1229 = DIRECTION('',(0.,1.110223024625E-16,-1.));
#1230 = DIRECTION('',(0.,1.,1.110223024625E-16));
#1231 = ADVANCED_FACE('',(#1232),#1243,.T.);
#1232 = FACE_BOUND('',#1233,.T.);
#1233 = EDGE_LOOP('',(#1234,#1235,#1241,#1242));
#1234 = ORIENTED_EDGE('',*,*,#1179,.T.);
#1235 = ORIENTED_EDGE('',*,*,#1236,.T.);
#1236 = EDGE_CURVE('',#1172,#1146,#1237,.T.);
#1237 = LINE('',#1238,#1239);
#1238 = CARTESIAN_POINT('',(-69.,6.2,116.));
#1239 = VECTOR('',#1240,1.);
#1240 = DIRECTION('',(0.,1.,0.));
#1241 = ORIENTED_EDGE('',*,*,#1145,.F.);
#1242 = ORIENTED_EDGE('',*,*,#1128,.T.);
#1243 = CYLINDRICAL_SURFACE('',#1244,6.);
#1244 = AXIS2_PLACEMENT_3D('',#1245,#1246,#1247);
#1245 = CARTESIAN_POINT('',(-69.,6.2,110.));
#1246 = DIRECTION('',(0.,1.,0.));
#1247 = DIRECTION('',(-1.,0.,0.));
#1248 = ADVANCED_FACE('',(#1249),#1267,.F.);
#1249 = FACE_BOUND('',#1250,.F.);
#1250 = EDGE_LOOP('',(#1251,#1252,#1253,#1261));
#1251 = ORIENTED_EDGE('',*,*,#1154,.T.);
#1252 = ORIENTED_EDGE('',*,*,#1196,.T.);
#1253 = ORIENTED_EDGE('',*,*,#1254,.F.);
#1254 = EDGE_CURVE('',#1255,#1197,#1257,.T.);
#1255 = VERTEX_POINT('',#1256);
#1256 = CARTESIAN_POINT('',(-25.2,50.,116.));
#1257 = LINE('',#1258,#1259);
#1258 = CARTESIAN_POINT('',(-25.2,50.,116.));
#1259 = VECTOR('',#1260,1.);
#1260 = DIRECTION('',(1.110223024625E-16,0.,-1.));
#1261 = ORIENTED_EDGE('',*,*,#1262,.F.);
#1262 = EDGE_CURVE('',#1146,#1255,#1263,.T.);
#1263 = LINE('',#1264,#1265);
#1264 = CARTESIAN_POINT('',(-69.,50.,116.));
#1265 = VECTOR('',#1266,1.);
#1266 = DIRECTION('',(1.,0.,1.110223024625E-16));
#1267 = PLANE('',#1268);
#1268 = AXIS2_PLACEMENT_3D('',#1269,#1270,#1271);
#1269 = CARTESIAN_POINT('',(-69.,50.,116.));
#1270 = DIRECTION('',(0.,-1.,0.));
#1271 = DIRECTION('',(1.,0.,1.110223024625E-16));
#1272 = ADVANCED_FACE('',(#1273),#1284,.F.);
#1273 = FACE_BOUND('',#1274,.F.);
#1274 = EDGE_LOOP('',(#1275,#1276,#1277,#1278));
#1275 = ORIENTED_EDGE('',*,*,#1254,.T.);
#1276 = ORIENTED_EDGE('',*,*,#1204,.T.);
#1277 = ORIENTED_EDGE('',*,*,#1171,.T.);
#1278 = ORIENTED_EDGE('',*,*,#1279,.F.);
#1279 = EDGE_CURVE('',#1255,#1172,#1280,.T.);
#1280 = LINE('',#1281,#1282);
#1281 = CARTESIAN_POINT('',(-25.2,50.,116.));
#1282 = VECTOR('',#1283,1.);
#1283 = DIRECTION('',(-0.707106781187,-0.707106781187,
    -7.850462293419E-17));
#1284 = PLANE('',#1285);
#1285 = AXIS2_PLACEMENT_3D('',#1286,#1287,#1288);
#1286 = CARTESIAN_POINT('',(-25.2,50.,116.));
#1287 = DIRECTION('',(-0.707106781187,0.707106781187,-7.850462293419E-17
    ));
#1288 = DIRECTION('',(-0.707106781187,-0.707106781187,
    -7.850462293419E-17));
#1289 = ADVANCED_FACE('',(#1290),#1295,.F.);
#1290 = FACE_BOUND('',#1291,.F.);
#1291 = EDGE_LOOP('',(#1292,#1293,#1294));
#1292 = ORIENTED_EDGE('',*,*,#1236,.T.);
#1293 = ORIENTED_EDGE('',*,*,#1262,.T.);
#1294 = ORIENTED_EDGE('',*,*,#1279,.T.);
#1295 = PLANE('',#1296);
#1296 = AXIS2_PLACEMENT_3D('',#1297,#1298,#1299);
#1297 = CARTESIAN_POINT('',(-53.51436149201,34.514361492015,116.));
#1298 = DIRECTION('',(1.110223024625E-16,0.,-1.));
#1299 = DIRECTION('',(1.,0.,1.110223024625E-16));
#1300 = ( GEOMETRIC_REPRESENTATION_CONTEXT(3) 
GLOBAL_UNCERTAINTY_ASSIGNED_CONTEXT((#1304)) 
GLOBAL_UNIT_ASSIGNED_CONTEXT((#1301,#1302,#1303)) REPRESENTATION_CONTEXT
('Context #1','3D Context with UNIT and UNCERTAINTY') );
#1301 = ( LENGTH_UNIT() NAMED_UNIT(*) SI_UNIT(.MILLI.,.METRE.) );
#1302 = ( NAMED_UNIT(*) PLANE_ANGLE_UNIT() SI_UNIT($,.RADIAN.) );
#1303 = ( NAMED_UNIT(*) SI_UNIT($,.STERADIAN.) SOLID_ANGLE_UNIT() );
#1304 = UNCERTAINTY_MEASURE_WITH_UNIT(LENGTH_MEASURE(1.E-07),#1301,
  'distance_accuracy_value','confusion accuracy');
#1305 = PRODUCT_RELATED_PRODUCT_CATEGORY('part',$,(#7));
ENDSEC;
END-ISO-10303-21;
